<?xml version="1.0" encoding="UTF-8" standalone="no"?>
<!-- Created with Inkscape (http://www.inkscape.org/) -->

<svg
   xmlns:dc="http://purl.org/dc/elements/1.1/"
   xmlns:cc="http://creativecommons.org/ns#"
   xmlns:rdf="http://www.w3.org/1999/02/22-rdf-syntax-ns#"
   xmlns:svg="http://www.w3.org/2000/svg"
   xmlns="http://www.w3.org/2000/svg"
   xmlns:xlink="http://www.w3.org/1999/xlink"
   xmlns:sodipodi="http://sodipodi.sourceforge.net/DTD/sodipodi-0.dtd"
   xmlns:inkscape="http://www.inkscape.org/namespaces/inkscape"
   width="210mm"
   height="297mm"
   id="svg2"
   version="1.1"
   inkscape:version="0.48.0 r9654"
   sodipodi:docname="Picmnt-desings.svg">
  <defs
     id="defs4">
    <linearGradient
       id="linearGradient3813">
      <stop
         style="stop-color:#fff6f6;stop-opacity:1;"
         offset="0"
         id="stop3815" />
      <stop
         id="stop3821"
         offset="0.6785714"
         style="stop-color:#000000;stop-opacity:0.49803922;" />
      <stop
         style="stop-color:#000000;stop-opacity:0;"
         offset="1"
         id="stop3817" />
    </linearGradient>
    <linearGradient
       id="linearGradient3803">
      <stop
         style="stop-color:#0000ff;stop-opacity:1;"
         offset="0"
         id="stop3805" />
      <stop
         style="stop-color:#0000ff;stop-opacity:0;"
         offset="1"
         id="stop3807" />
    </linearGradient>
    <linearGradient
       id="linearGradient3755">
      <stop
         style="stop-color:#17171d;stop-opacity:1"
         offset="0"
         id="stop3757" />
      <stop
         style="stop-color:#eeeeff;stop-opacity:1;"
         offset="1"
         id="stop3759" />
    </linearGradient>
    <linearGradient
       inkscape:collect="always"
       xlink:href="#linearGradient3755"
       id="linearGradient3761"
       x1="149.91103"
       y1="362.77136"
       x2="152.90926"
       y2="631.61182"
       gradientUnits="userSpaceOnUse"
       gradientTransform="matrix(0.22077919,0,0,1,81.769663,0)" />
    <linearGradient
       inkscape:collect="always"
       xlink:href="#linearGradient3755"
       id="linearGradient3907"
       gradientUnits="userSpaceOnUse"
       gradientTransform="matrix(1.3507321,0,0,0.07076773,6.0332439,183.67566)"
       x1="293.80615"
       y1="370.95032"
       x2="292.81357"
       y2="113.37367" />
    <mask
       maskUnits="userSpaceOnUse"
       id="mask3903">
      <rect
         y="200.40901"
         x="300.99185"
         height="9.5530777"
         width="216.52641"
         id="rect3905"
         style="fill:url(#linearGradient3907);fill-opacity:1;fill-rule:evenodd;stroke:none"
         transform="scale(1,-1)" />
    </mask>
    <linearGradient
       inkscape:collect="always"
       xlink:href="#linearGradient3755"
       id="linearGradient3913"
       gradientUnits="userSpaceOnUse"
       gradientTransform="matrix(1,0,0,0.09558825,4.4666473,-293.9)"
       x1="293.80615"
       y1="370.95032"
       x2="292.81357"
       y2="113.37367" />
    <mask
       maskUnits="userSpaceOnUse"
       id="mask3909">
      <rect
         y="-271.29773"
         x="222.83607"
         height="12.903648"
         width="160.30301"
         id="rect3911"
         style="fill:url(#linearGradient3913);fill-opacity:1;fill-rule:evenodd;stroke:none"
         transform="scale(1,-1)" />
    </mask>
    <linearGradient
       inkscape:collect="always"
       xlink:href="#linearGradient5304"
       id="linearGradient5478"
       gradientUnits="userSpaceOnUse"
       x1="122.87982"
       y1="26.216805"
       x2="100.77367"
       y2="4.4155445" />
    <linearGradient
       id="linearGradient5304">
      <stop
         style="stop-color:#7938c0;stop-opacity:1"
         offset="0"
         id="stop5306" />
      <stop
         style="stop-color:#883dda;stop-opacity:0;"
         offset="1"
         id="stop5308" />
    </linearGradient>
  </defs>
  <sodipodi:namedview
     id="base"
     pagecolor="#ffffff"
     bordercolor="#666666"
     borderopacity="1.0"
     inkscape:pageopacity="0.0"
     inkscape:pageshadow="2"
     inkscape:zoom="2.0149341"
     inkscape:cx="288.75489"
     inkscape:cy="783.70725"
     inkscape:document-units="px"
     inkscape:current-layer="layer2"
     showgrid="false"
     showguides="true"
     inkscape:guide-bbox="true"
     inkscape:window-width="1280"
     inkscape:window-height="947"
     inkscape:window-x="0"
     inkscape:window-y="24"
     inkscape:window-maximized="1" />
  <metadata
     id="metadata7">
    <rdf:RDF>
      <cc:Work
         rdf:about="">
        <dc:format>image/svg+xml</dc:format>
        <dc:type
           rdf:resource="http://purl.org/dc/dcmitype/StillImage" />
        <dc:title></dc:title>
      </cc:Work>
    </rdf:RDF>
  </metadata>
  <g
     inkscape:label="Capa 1"
     inkscape:groupmode="layer"
     id="layer1">
    <rect
       style="fill:url(#linearGradient3761);fill-opacity:1;fill-rule:evenodd;stroke:none"
       id="rect2985"
       width="16.989914"
       height="293.82562"
       x="104.93773"
       y="145.9001"
       inkscape:export-filename="/home/moises/Desarrollo/PSN/PSN/web/bundles/mainbundle/images/head-bkg.png"
       inkscape:export-xdpi="19.297159"
       inkscape:export-ydpi="19.297159" />
    <rect
       style="fill:#0000ff;fill-rule:evenodd;stroke:#000000;stroke-width:1px;stroke-linecap:butt;stroke-linejoin:miter;stroke-opacity:1"
       id="rect3763"
       width="8.9946604"
       height="0"
       x="147.91223"
       y="191.8728" />
  </g>
  <g
     inkscape:groupmode="layer"
     id="layer2"
     inkscape:label="logo">
    <g
       style="font-size:48px;font-style:normal;font-variant:normal;font-weight:300;font-stretch:normal;text-align:end;line-height:125.99999905%;letter-spacing:-3.71000004px;word-spacing:0px;text-anchor:end;fill:#000000;fill-opacity:1;stroke:none;font-family:AR PL UMing CN;-inkscape-font-specification:AR PL UMing CN Light"
       id="text3766"
       inkscape:export-filename="/home/moises/Desarrollo/PSN/PSN/web/bundles/picmntbundle/images/Picmnt-logo.png"
       inkscape:export-xdpi="183.89459"
       inkscape:export-ydpi="183.89459">
      <path
         d="m 266.64252,242.14832 c 0.78124,3e-5 1.42186,0.28128 1.92188,0.84375 0.56248,0.56253 0.84373,1.20315 0.84375,1.92187 -2e-5,0.75003 -0.28127,1.39065 -0.84375,1.92188 -0.56252,0.56252 -1.20314,0.84377 -1.92188,0.84375 -0.71876,2e-5 -1.35938,-0.28123 -1.92187,-0.84375 -0.56251,-0.49998 -0.84376,-1.1406 -0.84375,-1.92188 -10e-6,-0.74997 0.26561,-1.39059 0.79687,-1.92187 0.53124,-0.56247 1.18749,-0.84372 1.96875,-0.84375 m 1.17188,25.875 c -2e-5,1.5 1.18748,2.25 3.5625,2.25 l 3.79687,0 0,0.79687 -17.15625,0 0,-0.79687 3.79688,0 c 2.37499,0 3.56249,-0.75 3.5625,-2.25 l 0,-11.625 c -10e-6,-0.40624 -0.28126,-0.70311 -0.84375,-0.89063 -0.62501,-0.21873 -2.45314,-0.32811 -5.48438,-0.32812 l 0,-1.03125 c 3.28124,2e-5 5.76562,-0.90623 7.45313,-2.71875 l 1.3125,0 0,16.59375"
         id="path3775"
         inkscape:connector-curvature="0" />
      <path
         d="m 279.87002,251.47644 c 2.49999,2e-5 4.35936,0.4844 5.57813,1.45313 0.78123,0.62502 1.17185,1.31252 1.17187,2.0625 -2e-5,0.68751 -0.43752,1.03126 -1.3125,1.03125 -0.53127,10e-6 -1.04689,-0.34374 -1.54687,-1.03125 -0.90627,-1.24998 -2.51564,-1.87498 -4.82813,-1.875 -1.71876,2e-5 -3.25001,0.68752 -4.59375,2.0625 -1.5,1.53126 -2.25,3.70314 -2.25,6.51562 0,2.56251 0.8125,4.59376 2.4375,6.09375 1.62499,1.34376 3.53124,2.01563 5.71875,2.01563 2.56249,0 4.92186,-1.07812 7.07813,-3.23438 l 0.79687,0.75 c -2.40627,2.8125 -5.03126,4.21875 -7.875,4.21875 -2.90626,0 -5.35938,-0.79687 -7.35937,-2.39062 -2.15626,-1.84375 -3.23438,-4.32812 -3.23438,-7.45313 0,-2.74998 0.76562,-5.03123 2.29688,-6.84375 1.96874,-2.24998 4.60936,-3.37498 7.92187,-3.375"
         id="path3777"
         style="" />
      <path
         d="m 308.6444,269.28894 c -2e-5,0.65626 0.62498,0.98438 1.875,0.98438 l 0,0.79687 -6.04688,0 0,-0.79687 c 1.24998,-0.0625 1.87498,-0.39062 1.875,-0.98438 l 0,-13.73437 c -2e-5,-0.81248 -0.21877,-1.39061 -0.65625,-1.73438 -0.46877,-0.37498 -0.98439,-0.56248 -1.54687,-0.5625 -0.56252,2e-5 -1.25002,0.37502 -2.0625,1.125 -0.71877,0.65627 -1.35939,1.60939 -1.92188,2.85938 l 0,12.04687 c -10e-6,0.65626 0.62499,0.98438 1.875,0.98438 l 0,0.79687 -6.04687,0 0,-0.79687 c 1.24999,-0.0625 1.87499,-0.39062 1.875,-0.98438 l 0,-13.3125 c -1e-5,-0.81248 -0.15626,-1.4531 -0.46875,-1.92187 -0.34376,-0.53123 -0.82814,-0.79686 -1.45313,-0.79688 -0.46876,2e-5 -1.00001,0.31252 -1.59375,0.9375 -0.9375,0.96877 -1.73438,1.96877 -2.39062,3 l 0,12.09375 c -1e-5,0.65626 0.62499,0.98438 1.875,0.98438 l 0,0.79687 -6.04688,0 0,-0.79687 c 1.25,-0.0625 1.875,-0.39062 1.875,-0.98438 l 0,-13.40625 c 0,-0.31248 -0.10937,-0.53123 -0.32812,-0.65625 -0.1875,-0.15623 -0.70313,-0.23435 -1.54688,-0.23437 l 0,-0.79688 3.51563,-2.76562 0.65625,0 0,3.46875 c 0.34374,-0.56248 0.82812,-1.14061 1.45312,-1.73438 1.1875,-1.15623 2.42187,-1.73435 3.70313,-1.73437 0.93749,2e-5 1.68749,0.40627 2.25,1.21875 0.34374,0.46877 0.57811,1.17189 0.70312,2.10937 0.28124,-0.43748 0.70311,-0.93748 1.26563,-1.5 1.21873,-1.21873 2.49998,-1.8281 3.84375,-1.82812 0.93748,2e-5 1.73435,0.34377 2.39062,1.03125 0.71873,0.71877 1.07811,1.75002 1.07813,3.09375 l 0,13.73437"
         id="path3779"
         style="" />
      <path
         d="m 327.24689,268.11707 c -1e-5,1.4375 0.93748,2.15625 2.8125,2.15625 l 0,0.79687 -8.0625,0 0,-0.79687 c 1.87499,0 2.81249,-0.71875 2.8125,-2.15625 l 0,-11.67188 c -1e-5,-1.93748 -1.18751,-2.90623 -3.5625,-2.90625 -1.87501,2e-5 -4.23438,1.09377 -7.07812,3.28125 l 0,11.48438 c -10e-6,1.3125 0.93749,1.96875 2.8125,1.96875 l 0,0.79687 -8.0625,0 0,-0.79687 c 1.875,0 2.8125,-0.65625 2.8125,-1.96875 l 0,-11.53125 c 0,-1.34374 -0.92188,-2.01561 -2.76563,-2.01563 l 0,-0.79687 4.6875,-2.53125 0.51563,0 0,4.125 c 2.93749,-2.74998 5.29686,-4.12498 7.07812,-4.125 3.99999,0.0313 5.99999,1.70314 6,5.01562 l 0,11.67188"
         id="path3781"
         style="" />
      <path
         d="m 332.4744,252.41394 -6.51563,0 0,-1.03125 c 4.71875,2e-5 7.40624,-2.31247 8.0625,-6.9375 l 0.89063,0 0,6.89063 8.8125,0 0,1.07812 -8.8125,0 0,13.875 c -10e-6,1.00001 0.35936,1.81251 1.07812,2.4375 0.65624,0.56251 1.74999,0.84376 3.28125,0.84375 0.96874,10e-6 1.93749,-0.37499 2.90625,-1.125 0.90624,-0.68749 1.73436,-1.84374 2.48438,-3.46875 l 0.9375,0.42188 c -0.87502,2.28125 -1.89065,3.84375 -3.04688,4.6875 -1.31251,0.96875 -2.78126,1.45312 -4.40625,1.45312 -1.68751,0 -3.06251,-0.45312 -4.125,-1.35937 -1.03125,-0.90625 -1.54688,-2.20312 -1.54687,-3.89063 l 0,-13.875"
         id="path3783"
         inkscape:connector-curvature="0" />
    </g>
    <text
       xml:space="preserve"
       style="font-size:68.52466583px;font-style:normal;font-variant:normal;font-weight:bold;font-stretch:normal;text-align:end;line-height:125.99999905%;letter-spacing:0px;word-spacing:0px;text-anchor:end;fill:#000051;fill-opacity:1;stroke:none;font-family:AR PL UMing CN;-inkscape-font-specification:AR PL UMing CN Bold"
       x="353.43317"
       y="205.9478"
       id="text3770"
       sodipodi:linespacing="126%"
       transform="scale(0.74033926,1.3507321)"
       inkscape:export-filename="/home/moises/Desarrollo/PSN/PSN/web/bundles/picmntbundle/images/Picmnt-logo.png"
       inkscape:export-xdpi="183.89459"
       inkscape:export-ydpi="183.89459"><tspan
         sodipodi:role="line"
         id="tspan3772"
         x="353.43317"
         y="205.9478">P</tspan></text>
    <g
       id="g3785"
       style="font-size:48px;font-style:normal;font-variant:normal;font-weight:300;font-stretch:normal;text-align:end;line-height:125.99999904999999956%;letter-spacing:-3.71000004000000017px;word-spacing:0px;text-anchor:end;fill:#000000;fill-opacity:0.26033059;stroke:none;font-family:AR PL UMing CN;-inkscape-font-specification:AR PL UMing CN Light"
       transform="matrix(1,0,0,-1,0,541.99661)"
       mask="url(#mask3909)"
       inkscape:export-filename="/home/moises/Desarrollo/PSN/PSN/web/bundles/picmntbundle/images/Picmnt-logo.png"
       inkscape:export-xdpi="183.89459"
       inkscape:export-ydpi="183.89459">
      <path
         inkscape:connector-curvature="0"
         id="path3787"
         d="m 266.64252,242.14832 c 0.78124,3e-5 1.42186,0.28128 1.92188,0.84375 0.56248,0.56253 0.84373,1.20315 0.84375,1.92187 -2e-5,0.75003 -0.28127,1.39065 -0.84375,1.92188 -0.56252,0.56252 -1.20314,0.84377 -1.92188,0.84375 -0.71876,2e-5 -1.35938,-0.28123 -1.92187,-0.84375 -0.56251,-0.49998 -0.84376,-1.1406 -0.84375,-1.92188 -10e-6,-0.74997 0.26561,-1.39059 0.79687,-1.92187 0.53124,-0.56247 1.18749,-0.84372 1.96875,-0.84375 m 1.17188,25.875 c -2e-5,1.5 1.18748,2.25 3.5625,2.25 l 3.79687,0 0,0.79687 -17.15625,0 0,-0.79687 3.79688,0 c 2.37499,0 3.56249,-0.75 3.5625,-2.25 l 0,-11.625 c -10e-6,-0.40624 -0.28126,-0.70311 -0.84375,-0.89063 -0.62501,-0.21873 -2.45314,-0.32811 -5.48438,-0.32812 l 0,-1.03125 c 3.28124,2e-5 5.76562,-0.90623 7.45313,-2.71875 l 1.3125,0 0,16.59375"
         style="fill:#000000;fill-opacity:0.26033059" />
      <path
         id="path3789"
         d="m 279.87002,251.47644 c 2.49999,2e-5 4.35936,0.4844 5.57813,1.45313 0.78123,0.62502 1.17185,1.31252 1.17187,2.0625 -2e-5,0.68751 -0.43752,1.03126 -1.3125,1.03125 -0.53127,10e-6 -1.04689,-0.34374 -1.54687,-1.03125 -0.90627,-1.24998 -2.51564,-1.87498 -4.82813,-1.875 -1.71876,2e-5 -3.25001,0.68752 -4.59375,2.0625 -1.5,1.53126 -2.25,3.70314 -2.25,6.51562 0,2.56251 0.8125,4.59376 2.4375,6.09375 1.62499,1.34376 3.53124,2.01563 5.71875,2.01563 2.56249,0 4.92186,-1.07812 7.07813,-3.23438 l 0.79687,0.75 c -2.40627,2.8125 -5.03126,4.21875 -7.875,4.21875 -2.90626,0 -5.35938,-0.79687 -7.35937,-2.39062 -2.15626,-1.84375 -3.23438,-4.32812 -3.23438,-7.45313 0,-2.74998 0.76562,-5.03123 2.29688,-6.84375 1.96874,-2.24998 4.60936,-3.37498 7.92187,-3.375"
         inkscape:connector-curvature="0"
         style="fill:#000000;fill-opacity:0.26033059" />
      <path
         id="path3791"
         d="m 308.6444,269.28894 c -2e-5,0.65626 0.62498,0.98438 1.875,0.98438 l 0,0.79687 -6.04688,0 0,-0.79687 c 1.24998,-0.0625 1.87498,-0.39062 1.875,-0.98438 l 0,-13.73437 c -2e-5,-0.81248 -0.21877,-1.39061 -0.65625,-1.73438 -0.46877,-0.37498 -0.98439,-0.56248 -1.54687,-0.5625 -0.56252,2e-5 -1.25002,0.37502 -2.0625,1.125 -0.71877,0.65627 -1.35939,1.60939 -1.92188,2.85938 l 0,12.04687 c -10e-6,0.65626 0.62499,0.98438 1.875,0.98438 l 0,0.79687 -6.04687,0 0,-0.79687 c 1.24999,-0.0625 1.87499,-0.39062 1.875,-0.98438 l 0,-13.3125 c -1e-5,-0.81248 -0.15626,-1.4531 -0.46875,-1.92187 -0.34376,-0.53123 -0.82814,-0.79686 -1.45313,-0.79688 -0.46876,2e-5 -1.00001,0.31252 -1.59375,0.9375 -0.9375,0.96877 -1.73438,1.96877 -2.39062,3 l 0,12.09375 c -1e-5,0.65626 0.62499,0.98438 1.875,0.98438 l 0,0.79687 -6.04688,0 0,-0.79687 c 1.25,-0.0625 1.875,-0.39062 1.875,-0.98438 l 0,-13.40625 c 0,-0.31248 -0.10937,-0.53123 -0.32812,-0.65625 -0.1875,-0.15623 -0.70313,-0.23435 -1.54688,-0.23437 l 0,-0.79688 3.51563,-2.76562 0.65625,0 0,3.46875 c 0.34374,-0.56248 0.82812,-1.14061 1.45312,-1.73438 1.1875,-1.15623 2.42187,-1.73435 3.70313,-1.73437 0.93749,2e-5 1.68749,0.40627 2.25,1.21875 0.34374,0.46877 0.57811,1.17189 0.70312,2.10937 0.28124,-0.43748 0.70311,-0.93748 1.26563,-1.5 1.21873,-1.21873 2.49998,-1.8281 3.84375,-1.82812 0.93748,2e-5 1.73435,0.34377 2.39062,1.03125 0.71873,0.71877 1.07811,1.75002 1.07813,3.09375 l 0,13.73437"
         inkscape:connector-curvature="0"
         style="fill:#000000;fill-opacity:0.26033059" />
      <path
         id="path3793"
         d="m 327.24689,268.11707 c -1e-5,1.4375 0.93748,2.15625 2.8125,2.15625 l 0,0.79687 -8.0625,0 0,-0.79687 c 1.87499,0 2.81249,-0.71875 2.8125,-2.15625 l 0,-11.67188 c -1e-5,-1.93748 -1.18751,-2.90623 -3.5625,-2.90625 -1.87501,2e-5 -4.23438,1.09377 -7.07812,3.28125 l 0,11.48438 c -10e-6,1.3125 0.93749,1.96875 2.8125,1.96875 l 0,0.79687 -8.0625,0 0,-0.79687 c 1.875,0 2.8125,-0.65625 2.8125,-1.96875 l 0,-11.53125 c 0,-1.34374 -0.92188,-2.01561 -2.76563,-2.01563 l 0,-0.79687 4.6875,-2.53125 0.51563,0 0,4.125 c 2.93749,-2.74998 5.29686,-4.12498 7.07812,-4.125 3.99999,0.0313 5.99999,1.70314 6,5.01562 l 0,11.67188"
         inkscape:connector-curvature="0"
         style="fill:#000000;fill-opacity:0.26033059" />
      <path
         inkscape:connector-curvature="0"
         id="path3795"
         d="m 332.4744,252.41394 -6.51563,0 0,-1.03125 c 4.71875,2e-5 7.40624,-2.31247 8.0625,-6.9375 l 0.89063,0 0,6.89063 8.8125,0 0,1.07812 -8.8125,0 0,13.875 c -10e-6,1.00001 0.35936,1.81251 1.07812,2.4375 0.65624,0.56251 1.74999,0.84376 3.28125,0.84375 0.96874,10e-6 1.93749,-0.37499 2.90625,-1.125 0.90624,-0.68749 1.73436,-1.84374 2.48438,-3.46875 l 0.9375,0.42188 c -0.87502,2.28125 -1.89065,3.84375 -3.04688,4.6875 -1.31251,0.96875 -2.78126,1.45312 -4.40625,1.45312 -1.68751,0 -3.06251,-0.45312 -4.125,-1.35937 -1.03125,-0.90625 -1.54688,-2.20312 -1.54687,-3.89063 l 0,-13.875"
         style="fill:#000000;fill-opacity:0.26033059" />
    </g>
    <g
       transform="scale(0.74033926,-1.3507321)"
       mask="url(#mask3903)"
       style="font-size:68.52466583px;font-style:normal;font-variant:normal;font-weight:bold;font-stretch:normal;text-align:end;line-height:125.99999905%;letter-spacing:0px;word-spacing:0px;text-anchor:end;fill:#000051;fill-opacity:0.25619836;stroke:none;font-family:AR PL UMing CN;-inkscape-font-specification:AR PL UMing CN Bold"
       id="text3797"
       inkscape:export-filename="/home/moises/Desarrollo/PSN/PSN/web/bundles/picmntbundle/images/Picmnt-logo.png"
       inkscape:export-xdpi="183.89459"
       inkscape:export-ydpi="183.89459">
      <path
         d="m 321.5799,-241.75518 18.33571,0 c 3.43513,5e-5 6.24571,0.86999 8.43174,2.60982 2.40904,1.91838 3.61357,4.19361 3.61361,6.8257 -4e-5,3.56903 -1.36071,6.335 -4.08204,8.29791 -3.03367,2.18604 -7.74027,3.27904 -14.11983,3.27902 l -4.34971,0 0,14.85593 c -10e-6,2.89981 1.44989,4.34971 4.34971,4.34971 l 0,1.13762 -12.17919,0 0,-1.13762 c 2.89981,0 4.34971,-1.4499 4.34971,-4.34971 l 0,-30.38105 c 0,-2.89977 -1.4499,-4.34967 -4.34971,-4.34971 l 0,-1.13762 m 7.82948,4.6843 0,14.78902 4.34971,0 c 4.59506,2e-5 8.14175,-0.8253 10.64006,-2.47599 2.72133,-1.78447 4.08201,-4.30507 4.08204,-7.56181 -3e-5,-2.36441 -1.04842,-4.23813 -3.14518,-5.62116 -2.31987,-1.51678 -5.3312,-2.27519 -9.03401,-2.27523 -2.67676,4e-5 -4.50587,0.2231 -5.48733,0.66918 -0.93687,0.44617 -1.4053,1.2715 -1.40529,2.47599"
         style=""
         id="path4371" />
    </g>
    <g
       id="g5462"
       transform="matrix(0.46020404,-0.34316955,0.34316955,0.46020404,257.86865,317.15779)"
       style="stroke:#7a7a7a;stroke-opacity:0.19512197"
       inkscape:export-filename="/home/moises/Desarrollo/PSN/PSN/web/bundles/picmntbundle/images/Picmnt-logo.png"
       inkscape:export-xdpi="183.89459"
       inkscape:export-ydpi="183.89459">
      <g
         style="fill:#ffffff;stroke:#7a7a7a;stroke-opacity:0.19512197"
         id="g5446"
         transform="translate(56.643432,3.9749779)">
        <path
           inkscape:export-ydpi="22"
           inkscape:export-xdpi="22"
           inkscape:export-filename="/home/moises/Desarrollo/PSN/PSN/web/bundles/mainbundle/images/text4769.png"
           transform="translate(2.4393019,6.2507112)"
           d="m 136.6009,20.728376 c 0,10.440717 -8.7369,18.904591 -19.51441,18.904591 -10.77752,0 -19.514419,-8.463874 -19.514419,-18.904591 0,-10.440717 8.736899,-18.9045902 19.514419,-18.9045902 10.77751,0 19.51441,8.4638732 19.51441,18.9045902 z"
           sodipodi:ry="18.904591"
           sodipodi:rx="19.514416"
           sodipodi:cy="20.728376"
           sodipodi:cx="117.08649"
           id="path5448"
           style="fill:#ffffff;fill-opacity:1;fill-rule:nonzero;stroke:#7a7a7a;stroke-width:0.2;stroke-miterlimit:4;stroke-opacity:0.19512197;stroke-dasharray:none"
           sodipodi:type="arc" />
        <path
           inkscape:connector-curvature="0"
           id="path5450"
           d="m 119.23013,8.2149564 c -3.04871,0 -5.92944,0.698542 -8.5,1.9062496 -0.95669,5.331824 0.64106,10.926197 5.21875,15.125 4.78538,5.496047 13.90937,7.684067 22.15625,6.5625 0.39541,-1.500123 0.625,-3.068047 0.625,-4.6875 0,-10.440717 -8.72249,-18.9062496 -19.5,-18.9062496 z"
           style="fill:#ffffff;fill-opacity:0.4262295;fill-rule:nonzero;stroke:#7a7a7a;stroke-width:0;stroke-miterlimit:4;stroke-opacity:0.19512197;stroke-dasharray:none" />
        <text
           xml:space="preserve"
           style="font-size:12px;font-style:normal;font-weight:normal;text-align:end;line-height:125.99999905%;letter-spacing:0px;word-spacing:0px;text-anchor:end;fill:#ffffff;fill-opacity:0.25409839;stroke:#7a7a7a;stroke-opacity:0.19512197;font-family:Bitstream Vera Sans;-inkscape-font-specification:Sans"
           x="133.55179"
           y="31.400322"
           id="text5452"
           sodipodi:linespacing="126%"><tspan
             sodipodi:role="line"
             id="tspan5454"
             x="133.55179"
             y="31.400322">Beta</tspan></text>
        <text
           sodipodi:linespacing="126%"
           id="text5456"
           y="31.552778"
           x="133.70424"
           style="font-size:12px;font-style:normal;font-weight:normal;text-align:end;line-height:125.99999905%;letter-spacing:0px;word-spacing:0px;text-anchor:end;fill:#ffffff;fill-opacity:1;stroke:#7a7a7a;stroke-opacity:0.19512197;font-family:Bitstream Vera Sans;-inkscape-font-specification:Sans"
           xml:space="preserve"><tspan
             y="31.552778"
             x="133.70424"
             id="tspan5458"
             sodipodi:role="line">Beta</tspan></text>
      </g>
      <g
         transform="translate(56.643432,3.9749777)"
         id="g5436"
         style="stroke:#7a7a7a;stroke-opacity:0.19512197">
        <path
           sodipodi:type="arc"
           style="fill:url(#linearGradient5478);fill-opacity:1;fill-rule:nonzero;stroke:#7a7a7a;stroke-width:0.2;stroke-miterlimit:4;stroke-opacity:0.19512197;stroke-dasharray:none"
           id="path5286"
           sodipodi:cx="117.08649"
           sodipodi:cy="20.728376"
           sodipodi:rx="19.514416"
           sodipodi:ry="18.904591"
           d="m 136.6009,20.728376 c 0,10.440717 -8.7369,18.904591 -19.51441,18.904591 -10.77752,0 -19.514419,-8.463874 -19.514419,-18.904591 0,-10.440717 8.736899,-18.9045902 19.514419,-18.9045902 10.77751,0 19.51441,8.4638732 19.51441,18.9045902 z"
           transform="translate(2.4393019,6.2507112)"
           inkscape:export-filename="/home/moises/Desarrollo/PSN/PSN/web/bundles/mainbundle/images/text4769.png"
           inkscape:export-xdpi="22"
           inkscape:export-ydpi="22" />
        <path
           style="fill:#ffffff;fill-opacity:0.4262295;fill-rule:nonzero;stroke:#7a7a7a;stroke-width:0;stroke-miterlimit:4;stroke-opacity:0.19512197;stroke-dasharray:none"
           d="m 119.23013,8.2149564 c -3.04871,0 -5.92944,0.698542 -8.5,1.9062496 -0.95669,5.331824 0.64106,10.926197 5.21875,15.125 4.78538,5.496047 13.90937,7.684067 22.15625,6.5625 0.39541,-1.500123 0.625,-3.068047 0.625,-4.6875 0,-10.440717 -8.72249,-18.9062496 -19.5,-18.9062496 z"
           id="path5347"
           inkscape:connector-curvature="0" />
        <text
           sodipodi:linespacing="126%"
           id="text5399"
           y="31.400322"
           x="133.55179"
           style="font-size:12px;font-style:normal;font-weight:normal;text-align:end;line-height:125.99999905%;letter-spacing:0px;word-spacing:0px;text-anchor:end;fill:#757575;fill-opacity:0.25409839;stroke:#7a7a7a;stroke-opacity:0.19512197;font-family:Bitstream Vera Sans;-inkscape-font-specification:Sans"
           xml:space="preserve"><tspan
             y="31.400322"
             x="133.55179"
             id="tspan5401"
             sodipodi:role="line">Beta</tspan></text>
        <text
           xml:space="preserve"
           style="font-size:12px;font-style:normal;font-weight:normal;text-align:end;line-height:125.99999905%;letter-spacing:0px;word-spacing:0px;text-anchor:end;fill:#ffffff;fill-opacity:1;stroke:#7a7a7a;stroke-opacity:0.19512197;font-family:Bitstream Vera Sans;-inkscape-font-specification:Sans"
           x="133.70424"
           y="31.552778"
           id="text5366"
           sodipodi:linespacing="126%"><tspan
             sodipodi:role="line"
             id="tspan5368"
             x="133.70424"
             y="31.552778">Beta</tspan></text>
      </g>
    </g>
  </g>
</svg>
