<?xml version="1.0" encoding="utf-8"?>
<!-- Generator: Adobe Illustrator 12.0.1, SVG Export Plug-In . SVG Version: 6.00 Build 51448)  -->
<!DOCTYPE svg PUBLIC "-//W3C//DTD SVG 1.1//EN" "http://www.w3.org/Graphics/SVG/1.1/DTD/svg11.dtd" [
	<!ENTITY ns_svg "http://www.w3.org/2000/svg">
	<!ENTITY ns_xlink "http://www.w3.org/1999/xlink">
]>
<svg  version="1.1" id="Layer_1" xmlns="&ns_svg;" xmlns:xlink="&ns_xlink;" width="408.417" height="448.633"
	 viewBox="0 0 408.417 448.633" overflow="visible" enable-background="new 0 0 408.417 448.633" xml:space="preserve">
<g>
	<path fill-rule="evenodd" clip-rule="evenodd" fill="#FFFFFF" d="M275.502,18.317c7.684,0.424,19.018-6.092,23.888,2.389
		c3.629-1.244,8.848,1.403,11.943-1.592c3.012,2.031,5.352,4.734,8.759,6.37c-1.338,5.343-7.657,1.898-12.74,2.389
		c-2.233-2.328,3.139-1.541,2.389-4.777c-2.766,0.153-3.023,2.816-5.573,3.185c-2.276-2.767-7.574-2.511-10.352-4.777
		c-2.508-0.385-1.803,2.444-4.777,1.593c-10.509-2.044-18.966,1.15-29.461,0c-4.4,4.889-10.868,7.71-13.536,14.332
		c3.549,0.362,6.334-1.031,8.759,3.185c5.003-0.444,7.401-5.895,11.943-2.389c-0.79,4.761-5.884,5.922-8.759,8.758
		c-1.173,1.158-1.101,3.288-2.389,4.778c-1.437,1.662-4.363,2.525-5.573,3.981c-1.348,1.622-2.587,4.346-3.981,6.37
		c-1.252,1.815-4.085,3.567-3.185,6.37c6.071,1.03,3.327-6.759,10.351-4.777c1.258-3.116-2.067-1.648-2.389-3.185
		c7.137-11.176,16.771-19.856,28.665-26.276c3.686,1.572,6.674-0.843,9.555,0c5.543,1.623,7.531,8.729,10.352,13.536
		c-5.061,4.844-11.656,8.728-15.129,15.925c-0.748,1.55-2.732,2.417-0.796,3.981c2.718,0.341,5.398-2.267,7.166-3.981
		c0.945-0.917,0.825-2.163,1.592-3.185c6.606-8.808,16.866-14.641,26.276-20.702c1.963-0.105,3.837-0.121,4.777,0.796
		c3.615-3.653,12.2-4.042,15.925,0c0,1.858,0,3.716,0,5.574c6.546,8.583,5.939,24.316,18.313,27.072
		c0.386,3.04-0.226,5.083-1.593,6.37c-0.451,3.001,1.961,14.207-1.592,16.721c-2.903,0.986-0.82-2.466-1.593-3.981
		c-0.56-1.096-2.099-1.036-2.389-2.389c-0.635-2.959,0.458-6.411,0-10.351c-1.081-2.104-4.672-1.698-6.37-3.185
		c-0.559-2.947,2.792-1.986,3.981-3.185c-0.393-3.588-3.466-4.497-3.981-7.962c-6.347-0.242-10.646,1.563-14.332,3.981
		c-0.59,2.712,2.935,1.312,3.185,3.185c4.481,11.91,11.791,17.966,11.147,32.646c0.698,2.556-2.065,1.651-2.389,3.185
		c0.173,7.259,2.519,12.344,5.573,16.721c0.059,9.559,1.595,27.707,0.797,38.219c0.01,1.583,2.172,1.012,1.592,3.185
		c4.329-0.184,2.947-6.077,3.186-10.351c2.741-4.956,4.175-11.219,8.759-14.333c3.919,0.858,5.111,4.443,5.573,8.759
		c-1.665,1.735-2.272-0.398-4.777,0c-3.222,6.599-6.577,13.063-7.962,21.499c-2.705-0.117-4.375-1.755-5.574,0.796
		c-0.258,6.417-3.188,13.692-4.777,19.11c-1.228,4.187-2.812,7.431-3.981,11.147c-0.379,1.208,0.377,2.772,0,3.981
		c-0.539,1.727-1.241,4.016-1.592,7.167c-0.484,4.332-4.848,13.047-3.981,19.109c2.558,0.17,1.938-2.84,3.185-3.982
		c2.671,3.732-0.224,9.598-0.796,14.334c-0.947,7.842-3.252,12.27-6.37,19.109c-2.013,4.412-3.696,9.938-7.166,11.943
		c-2.152-5.408,0.179-10.215-0.796-14.332c-1.604-6.77-10.23-11.631-11.944-19.109c-0.432-3.086,4.62-0.689,4.777-3.186
		c-0.129-0.926,0.176-1.418,0.797-1.594c-0.918-2.297-5.307-5.268-7.963-3.184c-4.429-3.533-6.883-9.043-6.369-17.518
		c5.494,1.938,6.897,7.965,11.943,10.352c1.993,0.135,2.493-1.225,3.185-2.389c-1.676-7.35-7.641-10.408-15.128-11.943
		c4.771-24.943-20.516-19.829-31.85-28.666c-1.499-5.886-1.049-12.501-1.593-17.517c-6.325-3.595-15.096-0.194-21.498-1.592
		c-1.061-3.476-0.625-6.637,0.796-9.555c2.622-1.784,5.503,2.662,8.759,0c-0.971-7.788-8.861-8.656-14.332-11.943
		c-7.721,1.891-14.06-1.48-20.703-0.796c-3.458,0.356-6.154,3.802-10.351,2.389c-3.179,2.13-6.502,4.115-7.962,7.962
		c1.836,2.928,6.161-1.003,10.351-1.592c6.335-0.891,13.376,0.325,18.313,1.592c-0.922,3.06-6.976,0.986-10.351,1.593
		c-3.201,1.045-2.267,6.226-2.389,10.351c-12.892,1.158-28.208,1.324-42.201,0c0.309-6.944-3.364-9.907-4.777-15.129
		c-0.334-2.851-4.628-1.742-4.777-4.777c10.443-5.46,10.199,10.852,15.925,15.128c1.98,0.123,2.465-1.25,3.981-1.592
		c-0.158-9.551,1.552-16.286-1.592-23.091c2.342-4.293,8.271-5,8.758-11.147c-0.207-3.509-5.892-1.539-7.962-3.185
		c1.183-2.001,6.914,0.544,7.167-2.389c-0.266-3.45-4.41-3.022-6.37-4.777c3.875-7.483,0.789-19.99,6.37-27.072
		c-2.041-2.89-0.398-5.069-2.389-7.167c-3.814,0.167-8.754-0.792-10.351,1.593c-0.236,2.094,3.089,0.626,2.389,3.185
		c-2.501-0.377-3.253,0.993-3.981,2.389c-0.589,2.712,2.934,1.312,3.185,3.185c-2.879,3.575-1.583,5.158-0.796,10.351
		c-3.788,1.135-3.075-2.232-4.777-3.185c-1.798-15.106,4.045-21.664,3.981-35.035c3.05-1.993,3.768-6.317,5.573-9.555
		c5.804-0.566,7.664-5.077,13.536-5.574c0.721,1.403,2.931,1.315,3.185,3.185c0.326,1.918-1.454,1.73-0.796,3.981
		c-5.987,0.476-9.935,5.105-7.962,11.147c-2.737-0.349-4.463,0.314-6.37,0.796c-5.651,8.766,5.802,10.836,11.943,12.74
		c4.462-1.555,1.71-5.671,3.981-8.759c5.202-2.495,13.426-1.968,19.905-3.185c1.945-3.742-3.181-5.743-4.777-7.962
		c-1.001-1.394-0.547-3.279-2.389-3.981c-1.993-0.76-4.722,0.55-7.166,0c-4.047-3.119-4.21-10.123-9.555-11.944
		c-3.754-0.039-4.862,2.57-8.758,2.389c1.628-3.23,3.333-6.847,5.573-9.555c3.438-4.153,8.535-6.939,11.944-11.147
		c10.09,0.472,15.464-0.645,22.294-5.574c4.027-2.906,6.939-8.662,11.944-3.981c7.437,0.372,14.185-5.157,19.906-1.592
		c4.032-2.671,8.208-0.93,11.943,0.796C274.601,15.502,274.585,17.376,275.502,18.317z M265.152,15.132
		c-4.839,2.062-8.478,5.324-14.333,6.37c-4.596,5.547-11.402,10.523-15.924,15.128c-1.656,1.687-5.308,2.962-3.982,5.574
		c13.477-4.572,17.302-18.795,31.054-23.091c2.816-1.266,4.954,1.407,6.37-1.592C266.802,17.197,267.708,14.434,265.152,15.132z
		 M207.026,31.057c-1.547,0.835,2.955,2.291,2.389,4.777c-0.339,1.519-2.275,1.441-1.593,3.981c1.499,1.952,3.005,3.896,3.185,7.166
		c10.71,4.684,13.917,16.871,25.479,20.703c4.545-7.739-5.031-13.688-8.758-18.313c1.584-1.866,1.834-5.066,1.592-8.759
		C221.046,37.632,215.908,19.342,207.026,31.057z M270.725,45.389c-1.934,1.283-4.184,5.325-6.37,7.166
		c-4.589,3.864-9.347,9.323-10.351,15.925c2.707-0.629,5.607-0.143,9.555,1.593c2.808-1.311,6.441-2.219,8.759,0
		c5.623-4.197,10.339-9.301,13.536-15.925c-4.026-1.65-6.483,4.479-10.352,5.574c-0.207-2.332,1.8-2.446,1.593-4.778
		c-3.56-0.374-3.06,3.311-6.37,3.185c0.996-4.469,8.003-6.646,7.166-10.351c-8.732,2.945-10.994,12.362-18.313,16.721
		c2.795-9.945,11.454-14.026,17.518-20.702C275.199,42.523,272.451,44.245,270.725,45.389z M322.481,43.797
		c-12.009,7.367-23.11,15.64-30.258,27.868c5.243,1.819,7.271-4.458,9.556-7.166c6.712-7.958,13.218-14.641,22.294-19.11
		C323.983,44.417,323.835,43.504,322.481,43.797z M330.443,45.389c-6.927,1.951-13.549,6.236-17.518,10.351
		c-3.571,3.705-9.46,7.626-8.758,11.944c3.465,2.687,4.373-2.688,7.962-2.389c9.864,2.044,18.728-1.328,26.276-3.981
		c-0.068-5.771-4.279-7.399-7.167-10.351c1.621-0.768,1.721-3.058,1.593-5.574C332.036,45.389,331.239,45.389,330.443,45.389z
		 M257.189,54.148C259.872,56.566,259.603,51.204,257.189,54.148L257.189,54.148z M254.004,58.925
		c2.459,1.041,4.517-2.259,2.389-3.185C256.069,57.274,253.305,56.369,254.004,58.925z M333.628,145.715
		c-4.351-0.958-4.505-6.112-9.556-6.37c-2.437,0.483-4.148,1.69-6.369,2.389c-13.334-4.37-28.21,2.768-35.035,11.944
		c4.4,5.817,11.128,0.575,15.129,0c10.922-1.57,19.245-3.601,30.257-3.981c3.774,0.738,4.315,4.708,9.555,3.981
		c-0.463-6.408,0.863-13.29,1.593-22.295c-0.176-0.621-0.667-0.926-1.593-0.796C335.559,135,333.881,141.899,333.628,145.715z
		 M258.782,137.753c-3.396,3.935,0.354,11.626,3.981,13.536C265.98,146.895,265.698,138.23,258.782,137.753z M321.684,158.455
		c-8.182-1.312-19.062-0.981-27.868,3.981c-0.593-2.451,2.186-1.53,1.593-3.981c-4.521-0.008-8.186,0.838-9.555,3.981
		c4.277,0.652,3.771,1.696,3.185,6.37c4.132,2.238,10.983,3.097,17.518,3.185c5.74,0.077,13.208,0.008,15.128-3.981
		c-1.061-0.797-2.403-1.312-3.185-2.389c1.151-1.502,1.778-3.529,4.777-3.185c2.955,1.026,2.566,5.397,6.37,5.574
		c2.513-0.141,4.748-0.56,4.777-3.185c-0.796-3.171-3.268-2.295-1.593-6.37c-2.425-3.68-9.591-2.619-14.332-3.981
		C317.893,157.469,322.727,155.023,321.684,158.455z M276.298,173.583c3.438-0.951,4.464,2.608,6.37,0.796
		c1.654-2.858,0.413-8.61,0.797-12.739c-1.682-0.708-2.354-2.424-4.778-2.389C276.247,162.969,275.218,168.471,276.298,173.583z
		 M328.054,169.602c-0.796,0-1.593,0-2.389,0c-3.343,3.293-9.054,4.217-13.536,6.37c-0.916-2.201-5.586-1.483-5.573,1.593
		c7.179,3.953,20.668,2.111,23.091-5.574C328.527,171.783,328.74,170.245,328.054,169.602z"/>
	<path fill-rule="evenodd" clip-rule="evenodd" d="M268.336,17.521c-1.416,2.999-3.554,0.326-6.37,1.592
		c-13.752,4.296-17.577,18.519-31.054,23.091c-1.325-2.611,2.326-3.887,3.982-5.574c4.521-4.605,11.328-9.581,15.924-15.128
		c5.855-1.046,9.494-4.308,14.333-6.37C267.708,14.434,266.802,17.197,268.336,17.521z"/>
	<path fill-rule="evenodd" clip-rule="evenodd" d="M229.321,40.612c0.242,3.692-0.008,6.893-1.592,8.759
		c3.727,4.626,13.303,10.574,8.758,18.313c-11.562-3.832-14.77-16.019-25.479-20.703c-0.18-3.271-1.687-5.214-3.185-7.166
		c-0.683-2.54,1.253-2.462,1.593-3.981c0.566-2.487-3.937-3.942-2.389-4.777C215.908,19.342,221.046,37.632,229.321,40.612z"/>
	<path fill-rule="evenodd" clip-rule="evenodd" d="M277.095,43.797c-6.063,6.676-14.723,10.757-17.518,20.702
		c7.319-4.359,9.581-13.776,18.313-16.721c0.837,3.706-6.17,5.882-7.166,10.351c3.311,0.125,2.811-3.559,6.37-3.185
		c0.207,2.332-1.8,2.446-1.593,4.778c3.868-1.094,6.325-7.224,10.352-5.574c-3.197,6.624-7.913,11.728-13.536,15.925
		c-2.317-2.219-5.951-1.311-8.759,0c-3.947-1.735-6.848-2.222-9.555-1.593c1.004-6.602,5.762-12.061,10.351-15.925
		c2.187-1.841,4.437-5.883,6.37-7.166C272.451,44.245,275.199,42.523,277.095,43.797z"/>
	<path fill-rule="evenodd" clip-rule="evenodd" d="M324.073,45.389c-9.076,4.469-15.582,11.152-22.294,19.11
		c-2.284,2.708-4.312,8.985-9.556,7.166c7.147-12.229,18.249-20.501,30.258-27.868C323.835,43.504,323.983,44.417,324.073,45.389z"
		/>
	<path fill-rule="evenodd" clip-rule="evenodd" d="M332.832,45.389c0.128,2.516,0.028,4.806-1.593,5.574
		c2.888,2.952,7.099,4.581,7.167,10.351c-7.549,2.653-16.412,6.025-26.276,3.981c-3.589-0.299-4.497,5.076-7.962,2.389
		c-0.702-4.317,5.187-8.239,8.758-11.944c3.969-4.115,10.591-8.4,17.518-10.351C331.239,45.389,332.036,45.389,332.832,45.389z"/>
	<path fill-rule="evenodd" clip-rule="evenodd" d="M257.189,54.148C259.603,51.204,259.872,56.566,257.189,54.148L257.189,54.148z"
		/>
	<path fill-rule="evenodd" clip-rule="evenodd" d="M256.393,55.74c2.128,0.926,0.07,4.226-2.389,3.185
		C253.305,56.369,256.069,57.274,256.393,55.74z"/>
	<path fill-rule="evenodd" clip-rule="evenodd" fill="#FFFFFF" d="M179.158,102.718c2.23-0.124,2.598,2.251,1.593,3.185
		C179.35,105.711,178.936,104.533,179.158,102.718z"/>
	<path fill-rule="evenodd" clip-rule="evenodd" d="M337.609,130.586c0.926-0.129,1.417,0.176,1.593,0.796
		c-0.729,9.005-2.056,15.887-1.593,22.295c-5.239,0.727-5.78-3.244-9.555-3.981c-11.012,0.381-19.335,2.412-30.257,3.981
		c-4.001,0.575-10.729,5.817-15.129,0c6.825-9.176,21.701-16.314,35.035-11.944c2.221-0.698,3.933-1.906,6.369-2.389
		c5.051,0.258,5.205,5.412,9.556,6.37C333.881,141.899,335.559,135,337.609,130.586z"/>
	<path fill-rule="evenodd" clip-rule="evenodd" d="M262.763,151.289c-3.627-1.91-7.378-9.601-3.981-13.536
		C265.698,138.23,265.98,146.895,262.763,151.289z"/>
	<path fill-rule="evenodd" clip-rule="evenodd" fill="#FFFFFF" d="M117.051,152.881c-2.824-0.183-7.657,1.575-10.351,0.796
		C108.669,152.702,115.774,149.35,117.051,152.881z"/>
	<path fill-rule="evenodd" clip-rule="evenodd" d="M318.5,154.474c4.741,1.363,11.907,0.302,14.332,3.981
		c-1.675,4.074,0.797,3.198,1.593,6.37c-0.029,2.625-2.265,3.044-4.777,3.185c-3.804-0.177-3.415-4.547-6.37-5.574
		c-2.999-0.344-3.626,1.683-4.777,3.185c0.781,1.076,2.124,1.591,3.185,2.389c-1.92,3.99-9.388,4.058-15.128,3.981
		c-6.534-0.088-13.386-0.947-17.518-3.185c0.586-4.674,1.093-5.718-3.185-6.37c1.369-3.143,5.034-3.989,9.555-3.981
		c0.593,2.451-2.186,1.53-1.593,3.981c8.806-4.962,19.687-5.293,27.868-3.981C322.727,155.023,317.893,157.469,318.5,154.474z
		 M297.001,167.213c1.507,1.413,5.258,0.58,7.962,0.796C304.815,163.61,297.619,162.693,297.001,167.213z"/>
	<path fill-rule="evenodd" clip-rule="evenodd" fill="#FFFFFF" d="M242.857,156.066c2.46,2.317,0.754,8.8,2.389,11.943
		c4.562,1.609,14.434-0.327,20.702,1.592c-4.062,4.612-13.02,1.125-19.906,1.593c0.129,0.926-0.176,1.417-0.796,1.592
		c-0.512,4.715,2.893,4.288,4.777,4.778c0.854,2.408-1.854,1.17-3.185,1.592c-4.615,1.464-15.132,2.124-23.888,1.593
		c-0.19-3.79,1.011-8.973-2.389-9.555c-4.789,0.076,0.478,3.218-1.592,4.777c-2.486-0.699-2.614-3.756-4.777-4.777
		c-26.135,0.987-62.841,0.055-88.382,0c-1.624,0.234-1.562,2.154-3.185,2.389c-1.173,4.244,2.158,6.815,0.796,8.759
		c-7.878,3.135-23.143,1.251-30.257,0.796c1.001-2.061,6.2-2.861,9.555-3.185c4.876-0.47,9.899,1.531,15.129,0
		c1.941-2.04,1.661-6.301,1.592-10.352c31.596-1.846,66.609-0.274,99.53-0.796c1.85-0.539,2.131-2.646,3.981-3.185
		C215.797,154.321,233.153,155.621,242.857,156.066z M226.135,160.844c-1.361,6.11,1.275,8.602,0,15.128
		c3.424,1.29,11.705,1.29,15.129,0c0-5.043,0-10.085,0-15.128C236.137,158.328,231.192,159.322,226.135,160.844z"/>
	<path fill-rule="evenodd" clip-rule="evenodd" fill="#FFFFFF" d="M367.07,156.862c0.627,2.75-0.744,3.503-2.389,3.981
		c0.714,1.674,1.238,3.54,2.389,4.777c1.105,12.517-1.982,20.843-7.166,27.072c1.53,1.986-1.216,3.272,0.796,4.777
		c-4.276,7.137-3.847,18.98-13.536,20.703c-1.927-6.549,2.475-12.649,1.593-20.703c1.517-1.492,2.001-0.087,3.981,0
		c2.188-0.997,2.062-4.307,2.389-7.166c-2.158-2.171-1.981,2.06-4.777,1.593c-0.536-3.986,0.737-6.163,0.796-9.555
		c2.924-0.526,4.97-1.932,5.574-4.777c2.007-0.369,5.453,0.103,6.369-3.186c0.518-3.967-2.208-4.691-3.185-7.166
		C360.234,161.705,361.412,157.043,367.07,156.862z"/>
	<path fill-rule="evenodd" clip-rule="evenodd" d="M241.264,160.844c0,5.043,0,10.085,0,15.128c-3.424,1.29-11.705,1.29-15.129,0
		c1.275-6.526-1.361-9.019,0-15.128C231.192,159.322,236.137,158.328,241.264,160.844z M230.118,172.787
		c2.622,1.344,5.09,0.472,7.962,0c-0.37-4.331-0.471-4.196-0.796-7.962C232.237,159.934,226.578,166.797,230.118,172.787z"/>
	<path fill-rule="evenodd" clip-rule="evenodd" d="M278.687,159.251c2.424-0.035,3.097,1.681,4.778,2.389
		c-0.384,4.129,0.857,9.881-0.797,12.739c-1.906,1.812-2.932-1.747-6.37-0.796C275.218,168.471,276.247,162.969,278.687,159.251z"/>
	<path fill-rule="evenodd" clip-rule="evenodd" fill="#FFFFFF" d="M237.284,164.825c0.325,3.766,0.426,3.631,0.796,7.962
		c-2.872,0.472-5.34,1.344-7.962,0C226.578,166.797,232.237,159.934,237.284,164.825z"/>
	<path fill-rule="evenodd" clip-rule="evenodd" fill="#FFFFFF" d="M304.963,168.01c-2.704-0.216-6.455,0.617-7.962-0.796
		C297.619,162.693,304.815,163.61,304.963,168.01z"/>
	<path fill-rule="evenodd" clip-rule="evenodd" d="M329.647,171.991c-2.423,7.685-15.912,9.527-23.091,5.574
		c-0.013-3.076,4.657-3.794,5.573-1.593c4.482-2.153,10.193-3.077,13.536-6.37c0.796,0,1.593,0,2.389,0
		C328.74,170.245,328.527,171.783,329.647,171.991z"/>
	<path fill-rule="evenodd" clip-rule="evenodd" fill="#FFFFFF" d="M113.07,172.787c-2.244,0.827-7.45,1.524-9.555,0
		C104.186,170.469,113.013,168.388,113.07,172.787z"/>
	<path fill-rule="evenodd" clip-rule="evenodd" fill="#FFFFFF" d="M99.534,171.991c-0.177,2.476-3.963,1.345-6.37,1.592
		C92.678,170.443,97.536,172.647,99.534,171.991z"/>
	<path fill-rule="evenodd" clip-rule="evenodd" fill="#FFFFFF" d="M117.051,174.379c0.82,3.25-3.718,4.247-3.185,0.797
		C114.575,174.557,115.665,174.32,117.051,174.379z"/>
	<path fill-rule="evenodd" clip-rule="evenodd" fill="#FFFFFF" d="M90.775,176.768c-0.394,3.235-3.018,5.12-5.574,3.981
		C85.062,176.981,88.208,175.619,90.775,176.768z"/>
	<path fill-rule="evenodd" clip-rule="evenodd" fill="#FFFFFF" d="M127.402,178.361c3.516-0.115-0.076,1.95,0.796,3.981
		c-1.062,0-2.124,0-3.185,0C124.167,179.373,128,181.082,127.402,178.361z"/>
	<path fill-rule="evenodd" clip-rule="evenodd" fill="#FFFFFF" d="M189.509,179.954c-9.689,2.098-24.757-1.173-34.238,0.796
		c-0.411-3.861,7.142,0.24,7.962-2.389C170.434,180.449,182.368,177.805,189.509,179.954z"/>
	<path fill-rule="evenodd" clip-rule="evenodd" fill="#FFFFFF" d="M144.124,185.527c4.355-2.735,6.807,3.137,6.37,5.574
		c2.644-1.613,0.436-3.271,0.796-7.166c-5.994-1.693-6.814,1.545-11.147,3.185c0.254-1.869,1.258-2.988,0.796-5.574
		c-1.914,1.006-4.815,1.024-6.37,2.39c-0.18,4.16,0.013,7.948,0.796,11.146c-3.258,1.841-7.881,1.406-14.333,1.593
		c-5.98,4.61,1.364,17.735-3.185,23.887c-2.701-8.092-1.263-17.65-0.796-26.276c4.378-1.991,13.355,0.615,15.128-3.981
		c0.329-3.778-2.717-4.183-2.389-7.962c4.931-4.92,17.317-3.079,23.887-0.797c-0.085,2.896,1.602,4.633,1.592,7.167
		c-0.014,3.958-3.541,7.479-3.185,11.146c0.228,2.343,1.802,2.795,1.593,5.574c-2.341-0.579-3.357-2.482-3.185-5.574
		c-1-3.351-8.726-4.459-11.147-1.592c0.367,8.741-3.704,16.453,0,23.886c1.075,2.111,4.197,2.174,3.981,5.574
		c-4.24,1.619-6.799-4.709-8.759-7.963c-0.743,0.584-1.207,1.449-1.592,2.389c-1.78-0.342-0.323-3.924-0.796-5.572
		c1.062,0,2.123,0,3.185,0c0.664-9.422,1.14-19.033,3.185-27.073c3.432-0.778,2.317,2.991,4.777,3.185
		C144.66,191.373,143.961,188.018,144.124,185.527z M144.919,194.286c3.082,0.747,7.766-0.97,3.981-2.389
		C149.04,194.16,143.692,190.934,144.919,194.286z"/>
	<path fill-rule="evenodd" clip-rule="evenodd" fill="#FFFFFF" d="M214.988,179.157c0.707,2.603,2.709,12.575-1.592,12.74
		c0-3.185,0-6.37,0-9.555c-5.851,0.48-11.619-1.592-19.11-1.593C198.119,178.411,207.218,179.574,214.988,179.157z"/>
	<path fill-rule="evenodd" clip-rule="evenodd" fill="#FFFFFF" d="M203.045,187.12c-1.565,4.156,0.64,7.218,0,9.555
		c-10.747,3.849-31.324-3.555-43.793,3.981c9.172-0.607,22.256-2.733,31.85,1.592c-0.072,2.173,1.326,1.604,0,3.186
		c5.991,7.544,12.994,14.078,16.721,23.886c-2.867,4.291,0.039,9.85-1.592,15.129c-1.208,3.91-5.397,6.094-6.37,10.352
		c0.732,2.17,2.489-1.111,4.777,0c-1.098,6.334-4.867,9.994-12.74,9.555c-3.499,0.668-0.589,3.129-2.389,4.777
		c-4.312,1.078-16.628-3.49-21.499,0.797c-2.043-4.594-10.351-2.92-13.536-6.371c-4.028-0.045-6.194,1.77-8.759,3.186
		c0.099,3.467-1.542,5.295-5.574,6.369c0.011-4.791,3.118-9.568,4.777-11.146c2.019-1.918,5.409-1.373,5.574-3.186
		c0.179-1.969-4.258-3.061-5.574-4.777c-0.132-0.172-0.029-2.801-0.796-3.98c-0.378-0.58-2.129-1.01-2.389-1.592
		c-1.851-4.162-3.558-12.342-2.389-16.723c5.533,0.041,5.585,5.564,5.574,11.148c1.326,5.162,7.846,8.98,6.37,14.332
		c1.612,0.803,7.003-0.992,6.37,3.98c9.659,0.17,18.332,3.062,26.276,0.797c6.169-1.76,10.044-7.102,15.129-8.758
		c-0.391-7.73,3.216-13.938,3.185-20.703c-0.077-16.5-13.292-29.575-29.46-29.46c-4.663,0.033-8.556,2.809-14.333,1.593
		c-4.818-3.486-2.195-13.076-0.796-19.11c14.672-1.591,29.011,0.597,42.201-0.796C200.642,185.807,201.984,186.322,203.045,187.12z
		 M183.139,189.508c-6.205-0.004-13.162,0.026-15.925,0.796c-2.488-0.364-2.545,1.701-2.389,3.981
		c5.254-0.036,11.707,0.047,17.517,0c5.456-0.044,12.502,1.375,14.332-2.389C195.15,188.57,188.784,189.512,183.139,189.508z"/>
	<path fill-rule="evenodd" clip-rule="evenodd" fill="#FFFFFF" d="M297.001,213.396c-3.662-0.32-3.988-3.975-5.574-6.37
		c-3.475-1.568-5.082-5.004-7.962-7.167c-13.408-1.455-22.531-7.194-38.22-6.369c1.081-3.48,5.343-2.826,7.962-3.981
		c3.002-1.323,4.75-3.727,8.759-3.981c10.854-0.689,21.644,10.056,31.85,11.147C296.007,201.976,296.477,205.556,297.001,213.396z"
		/>
	<path fill-rule="evenodd" clip-rule="evenodd" d="M196.675,191.897c-1.83,3.764-8.876,2.345-14.332,2.389
		c-5.811,0.047-12.263-0.036-17.517,0c-0.157-2.28-0.099-4.346,2.389-3.981c2.763-0.77,9.72-0.8,15.925-0.796
		C188.784,189.512,195.15,188.57,196.675,191.897z"/>
	<path fill-rule="evenodd" clip-rule="evenodd" d="M148.901,191.897c3.784,1.419-0.899,3.136-3.981,2.389
		C143.692,190.934,149.04,194.16,148.901,191.897z"/>
	<path fill-rule="evenodd" clip-rule="evenodd" fill="#FFFFFF" d="M128.995,201.452c-0.984,14.096-0.526,22.272-2.389,32.645
		c1.156,2.031,2.125,4.246,3.981,5.574c-2.522,5.234,0.596,10.617-2.389,17.518c-0.626-8.93-2.654-16.455-7.167-21.498
		c1.317-5.584,0.846-12.955,3.981-16.721c-2.448-3.186-2.421-8.235-0.796-11.944c0.616-3.104-2.943-4.129-0.796-6.37
		C125.204,198.86,127.411,200.708,128.995,201.452z"/>
	<path fill-rule="evenodd" clip-rule="evenodd" fill="#FFFFFF" d="M200.656,203.84c3.812-0.361,6.036,0.864,7.166,3.186
		c2.345-1.132,5.023-2.405,7.962-0.797c0.08,13.413,3.99,22.567,2.389,31.85c-1.327,0-2.654,0-3.981,0
		c-0.352,8.691,0.218,17.619,0.796,26.275c0.377,5.637,4.057,12.898-1.592,12.74c0.586-11.994-2.459-25.828-3.185-39.016
		c1.875,0.018,2.345-1.371,4.777-0.797c0.849-2.992-1.147-5.633-1.592-8.758c-0.943-6.631,0.173-14.385-3.185-19.11
		c-0.691,3.276-0.529,10.243-4.777,8.758c-3.542-0.705-2.035-6.457-2.389-10.351C202.799,205.944,200.28,206.34,200.656,203.84z"/>
	<path fill-rule="evenodd" clip-rule="evenodd" fill="#FFFFFF" d="M146.512,209.415c0.796,0,1.592,0,2.389,0
		c0.337,1.664-0.546,2.108-0.796,3.184C146.704,212.407,146.29,211.229,146.512,209.415z"/>
	<path fill-rule="evenodd" clip-rule="evenodd" fill="#FFFFFF" d="M170.399,211.006c18.544-2.923,28.868,13.78,23.887,30.258
		c-2.967,9.814-13.468,15.879-25.479,13.535c-2.243-0.438-8.568-2.74-11.147-4.777c-0.457-0.361-0.359-1.951-0.796-2.389
		c-0.378-0.379-2.108-0.414-2.389-0.797c-0.287-0.391-3.82-8.699-3.981-9.555c-1.233-6.539,1.78-15.936,5.574-19.906
		C159.119,214.183,163.005,212.173,170.399,211.006z M156.067,229.319c-3.341,23.592,29.379,26.438,33.442,8.76
		c2.172-9.451-2.911-17.561-11.147-22.295c-3.467,0.514-9-1.039-11.147,0.797C161.487,219.437,156.926,223.251,156.067,229.319z"/>
	<path fill-rule="evenodd" clip-rule="evenodd" fill="#FFFFFF" d="M222.951,214.192c1.286-0.225,1.371,0.752,2.389,0.795
		c-0.505,16.293,2.601,41.807,0,62.904c-3.009-2.393-2.397-7.299-2.389-11.148C222.979,253.528,223.162,235.063,222.951,214.192z"/>
	<path fill-rule="evenodd" clip-rule="evenodd" d="M167.214,216.581c2.146-1.836,7.68-0.283,11.147-0.797
		c8.237,4.734,13.32,12.844,11.147,22.295c-4.063,17.678-36.783,14.832-33.442-8.76
		C156.926,223.251,161.487,219.437,167.214,216.581z M164.029,222.153c0.086-0.07-4.678,6.77-4.777,7.166
		c-3.969,15.83,16.802,21.35,25.479,11.945c-1.292-3.662,0.652-4.027,2.389-6.371c-2.056-2.986-0.548-9.537-4.777-10.352
		c1.597,6.26-3.784,12.623-7.166,8.76c3.019-2.555,1.022-10.125,4.777-11.943C174.519,217.995,167.878,219.015,164.029,222.153z"/>
	<path fill-rule="evenodd" clip-rule="evenodd" fill="#FFFFFF" d="M179.954,221.358c-3.755,1.818-1.759,9.389-4.777,11.943
		c3.382,3.863,8.763-2.5,7.166-8.76c4.229,0.814,2.722,7.365,4.777,10.352c-1.737,2.344-3.681,2.709-2.389,6.371
		c-8.678,9.404-29.448,3.885-25.479-11.945c0.1-0.396,4.864-7.236,4.777-7.166C167.878,219.015,174.519,217.995,179.954,221.358z
		 M175.973,240.468c3.518,0.066,6.766-0.135,6.37-3.982C179.59,237.185,177.116,238.159,175.973,240.468z"/>
	<path fill-rule="evenodd" clip-rule="evenodd" fill="#FFFFFF" d="M117.051,222.95c1.354-0.293,1.502,0.621,1.592,1.592
		c-0.677-0.146-0.751,0.311-0.796,0.797C116.915,225.21,117.176,223.888,117.051,222.95z"/>
	<path fill-rule="evenodd" clip-rule="evenodd" fill="#FFFFFF" d="M230.118,226.136c1.347,1.572,4.596,1.242,3.98,4.777
		C231.675,230.417,230.028,229.144,230.118,226.136z"/>
	<path fill-rule="evenodd" clip-rule="evenodd" fill="#FFFFFF" d="M244.45,226.931c-0.242,2.414-3.072,2.236-3.186,4.777
		c-1.639-1.016-4.039-1.27-3.98-3.98C241.573,228.634,240.621,227.462,244.45,226.931z"/>
	<path fill-rule="evenodd" clip-rule="evenodd" fill="#FFFFFF" d="M270.725,235.69c4.322,2.578,5.356,8.445,7.166,13.535
		c-1.978,1.883-4.687,0.008-7.166,0C270.727,245.001,268.653,239.423,270.725,235.69z"/>
	<path fill-rule="evenodd" clip-rule="evenodd" d="M182.343,236.485c0.396,3.848-2.852,4.049-6.37,3.982
		C177.116,238.159,179.59,237.185,182.343,236.485z"/>
	<path fill-rule="evenodd" clip-rule="evenodd" fill="#FFFFFF" d="M253.208,237.282c3.559,0.74,2.188,5.756-2.389,4.777
		c0.594-2.451-2.186-1.529-1.592-3.98C251.26,238.497,252.014,239.134,253.208,237.282z"/>
	<path fill-rule="evenodd" clip-rule="evenodd" fill="#FFFFFF" d="M91.572,241.265c1.642,3.463,0.4,8.174,0,11.943
		c-6.327,1.131-11.307-0.16-16.721-0.797C76.996,245.14,82.387,236.7,91.572,241.265z"/>
	<path fill-rule="evenodd" clip-rule="evenodd" d="M402.104,265.946c-15.162-3.855-31.632-8.309-45.385-13.535
		c-4.535-1.725-10.017-1.92-11.944-6.369c-0.225-1.287,0.753-1.371,0.797-2.389c0.645-0.152,0.794-0.799,1.592-0.797
		c6.842,3.252,21.693,5.328,34.238,7.963c1.352,0.283,2.657,1.361,3.981,1.592c1.856,0.324,3.94-0.373,5.573,0
		c1.918,0.438,3.841,2.082,5.574,2.389c1.983,0.352,6.065-0.656,7.962,0C411.953,257.38,407.422,263.497,402.104,265.946z"/>
	<path fill-rule="evenodd" clip-rule="evenodd" fill="#FFFFFF" d="M216.581,244.448c4.359,0.354,3.618,9.377,2.389,12.74
		C217.68,253.765,214.429,248.735,216.581,244.448z"/>
	<path fill-rule="evenodd" clip-rule="evenodd" fill="#FFFFFF" d="M244.45,245.245c0.979,0.348,1.635,1.018,1.592,2.389
		C245.062,247.286,244.407,246.614,244.45,245.245z"/>
	<path fill-rule="evenodd" clip-rule="evenodd" fill="#FFFFFF" d="M130.587,254.8c0.796,0,1.592,0,2.389,0
		c0.433,6.111,0.673,18.645-7.166,19.109c-0.594-5.105,0.929-8.094,0.796-12.74c3.134-1.275,0.277,3.439,2.389,3.186
		C131.434,261.315,130.781,259.733,130.587,254.8z"/>
	<path fill-rule="evenodd" clip-rule="evenodd" d="M43.797,260.374c1.046,0.281,1.252,1.4,2.389,1.592
		c-1,8.707,2.747,16.879-0.796,21.498c-6.242,0.139-0.805-11.404-4.777-13.535C43.085,266.433,40.656,262.979,43.797,260.374z"/>
	<path fill-rule="evenodd" clip-rule="evenodd" fill="#FFFFFF" d="M137.753,260.374c0.926-0.129,1.417,0.176,1.592,0.795
		c0.631,2.754-0.885,3.361-1.592,4.777c-1.361,4.088,3.233,9.182-1.592,9.555C135.689,269.833,135.228,264.667,137.753,260.374z"/>
	<path fill-rule="evenodd" clip-rule="evenodd" d="M355.126,263.558c1.643,18,12.489,31.662,7.962,50.959
		c0.317,2.338,2.613,2.697,3.186,4.779c-0.968,2.482-1.489,5.41-5.574,4.777c-3.522-4.588-2.104-10.037-3.185-17.518
		c-0.854-5.9-3.054-14.244-4.777-23.092C350.657,272.79,345.622,266.06,355.126,263.558z"/>
	<path fill-rule="evenodd" clip-rule="evenodd" fill="#FFFFFF" d="M113.866,265.946c2.162,2.617,2.2,7.355,3.981,10.352
		c-3.465,0.811-3.662-1.646-5.574-2.389C112.925,271.376,112.782,268.048,113.866,265.946z"/>
	<path fill-rule="evenodd" clip-rule="evenodd" fill="#FFFFFF" d="M206.23,267.54c1.062,0,2.124,0,3.185,0
		c0.802,2.395-1.774,1.41-3.185,1.592C206.23,268.601,206.23,268.071,206.23,267.54z"/>
	<path fill-rule="evenodd" clip-rule="evenodd" d="M312.925,273.909c2.235,5.463,1.391,14.004,3.186,19.906
		c-7.112,0.027-7.09-6.979-6.37-12.74c-0.165-2.906-3.517-5.455-1.593-7.963C309.386,271.802,311.25,273.386,312.925,273.909z"/>
	<path fill-rule="evenodd" clip-rule="evenodd" fill="#FFFFFF" d="M140.938,273.909c13.695,0.795,38.842,1.539,55.736,0.797
		c5.291-0.232,11.983-3.16,15.129,2.389c-20.033,0.578-39.791,0.963-68.477-0.797C141.59,276.442,140.794,275.647,140.938,273.909z"
		/>
	<path fill-rule="evenodd" clip-rule="evenodd" fill="#FFFFFF" d="M121.032,279.483c2.704,0.217,6.456-0.617,7.962,0.797
		c0.254,1.846-0.128,3.057-0.796,3.98C124.09,284.388,122.829,281.669,121.032,279.483z"/>
	<path fill-rule="evenodd" clip-rule="evenodd" fill="#FFFFFF" d="M211.804,280.28c-4.488,8.164-22.976-0.125-29.461,3.98
		c-15.382-3.465-27.261,1.818-38.219-1.592c-3.465-0.016-4.439,2.461-8.759,1.592c0.472-2.541-1.495-2.463,0-3.98
		C163.522,279.188,184.124,279.62,211.804,280.28z"/>
	<path fill-rule="evenodd" clip-rule="evenodd" fill="#FFFFFF" d="M228.524,279.483c-0.814,4.227-6.93,3.154-10.351,4.777
		c0.593-2.451-2.186-1.531-1.592-3.98C219.198,278.649,224.645,279.849,228.524,279.483z"/>
	<path fill-rule="evenodd" clip-rule="evenodd" fill="#FFFFFF" d="M88.387,283.464c1.283,3.086,4.744,10.176-0.796,11.148
		c-0.658-4.65-5.704-4.912-5.574-10.352C83.771,283.542,85.437,284.374,88.387,283.464z"/>
	<path fill-rule="evenodd" clip-rule="evenodd" fill="#FFFFFF" d="M211.007,286.649c0.531,0,1.062,0,1.592,0
		c0,0.531,0,1.061,0,1.592c-0.531,0-1.061,0-1.592,0C211.007,287.71,211.007,287.181,211.007,286.649z"/>
	<path fill-rule="evenodd" clip-rule="evenodd" d="M231.709,293.019c1.887-2.678,5.69,2.094,3.186,3.982
		C232.696,296.81,233.077,294.04,231.709,293.019z"/>
	<path fill-rule="evenodd" clip-rule="evenodd" d="M84.405,347.163c-1.627,11.156-23.725,8.861-29.46,4.777
		C59.416,345.483,77.049,348.099,84.405,347.163z"/>
	<path fill-rule="evenodd" clip-rule="evenodd" d="M321.684,359.106c0.126,7.027-5.772,8.029-11.943,8.76
		c0.018-1.877-1.372-2.346-0.796-4.777C314.185,362.755,315.75,358.745,321.684,359.106z"/>
	<path fill-rule="evenodd" clip-rule="evenodd" fill="#FFFFFF" d="M25.484,368.661c0.796,0,1.592,0,2.389,0
		c2.747,3.398,4.29,7.672,7.962,10.352c2.354,1.717,7.765,4.549,11.147,5.574c2.4,0.727,5.423,0.066,7.962,0.795
		c1.01,0.291,1.942,1.961,3.185,2.389c3.412,1.18,7.887,0.467,11.147,1.594c2.287,0.789,7.258,4.609,12.74,3.186
		c8.842,4.162,19.67,6.34,23.887,15.127c-0.499,3.768-5.177,7.537-3.981,10.352c-2.795,2.742-0.582-6.279-3.185-6.369
		c-1.899,1.02-4.315,1.523-4.777,3.98c-21.164-11.482-49.912-15.379-71.662-26.275C24.549,383.651,26.115,377.255,25.484,368.661z"
		/>
	<path fill-rule="evenodd" clip-rule="evenodd" fill="#FFFFFF" d="M85.998,388.567c4.787,0.236,9.912,3.389,14.332,5.574
		c3.863,1.91,11.409,3.521,8.759,9.555c-4.537-2.629-9.021-5.311-11.943-9.555C92.628,393.085,87.086,393.054,85.998,388.567z"/>
	<path fill-rule="evenodd" clip-rule="evenodd" d="M301.779,429.972c-0.483,2.438-1.69,4.148-2.389,6.371
		C287.506,437.3,296.332,422.241,301.779,429.972z"/>
	<path fill-rule="evenodd" clip-rule="evenodd" d="M356.719,140.142c2.148,1.837,3.973-3.424,7.962-2.389
		c3.375,0.606,4.25,3.712,6.37,5.574c0.844,7.15-0.789,14.14-0.797,20.702c-0.015,13.535,1.481,25.61-7.166,33.441
		c-1.368,9.514-3.959,17.804-7.962,24.683c-2.847,0.338-4.249,2.121-7.963,1.594c-3.2,5.748-1.814,12.377-3.185,18.312
		c-0.484,2.1-2.296,3.312-3.185,5.574c-1.268,3.225-0.568,6.85-1.593,9.555c-0.708,1.871-2.972,3.547-3.981,5.574
		c-2.485,4.992-3.124,9.438-7.166,12.738c-1.519,1.496-1.44-0.473-3.981,0c1.476,12.857,4.131,24.535,6.37,36.627
		c3.941-1.979,2.435-7.025,3.186-10.35c0.782-3.471,2.495-6.656,3.185-10.352c0.699-3.752,0.118-7.984,0.796-11.943
		c0.271-1.574,1.448-3.223,1.593-4.777c0.544-5.828-2.563-16.891,4.777-19.109c0.04,24.129-6.511,42.459-7.962,62.902
		c-1.832,1.354-2.63,3.74-3.981,5.574c2.211,7.078,4.188,14.391,6.37,21.498c2.501,1.117,3.609,1.055,5.573,2.389
		c2.986,2.027,2.234,3.953,8.759,3.184c4.949,3.451,7.915,8.646,11.943,13.537c1.367,1.66,2.053,3.443,3.185,4.777
		c4.983,5.877,13.538,10.186,15.129,19.109c-4.581,3.871-7.237-0.73-9.555-3.186c-7.016-7.424-13.221-19.396-21.499-25.479
		c-2.255,5.441,1.18,16.572-3.185,19.906c-3.14,18.875-15.68,32.738-26.275,45.385c-5.013,5.982-6.796,10.477-13.536,13.537
		c-1.491,1.959-2.49,4.41-3.981,6.369c-3.972,0.4-5.971,4.775-9.555,3.186c-1.59-3.629,2.989-5.303,4.777-7.166
		c11.033-11.506,23.095-24.084,33.442-37.424c0.768-6.207,7.818-13.709,10.351-19.906c0.608-1.488,0.285-3.914,0.796-5.574
		c1.153-3.748,8.029-20.324-1.592-21.498c-1.019,6.68-3.93,11.465-4.777,18.314c-3.137,1.111-3.651,4.842-5.574,7.166
		c-4.796,7.943-11.557,13.922-15.925,22.295c-5.495,2.201-6.67,8.723-12.739,10.35c-2.33,4.674-8.205,9.703-12.74,9.555
		c-1.221-9.775,13.257-10.584,15.925-19.109c0.062-4.043-3.518-4.443-4.777-7.166c-0.566-2.352-0.22-5.619-2.389-6.369
		c-2.882,1.961-4.187,6.602-5.574,10.352c-1.424,3.85-1.724,8.646-4.777,11.146c0.572,5.35-1.122,8.434-5.573,8.758
		c-1.889-3.982,0.779-11.58,3.185-17.516c2.204-5.438,6.095-10.582,7.963-15.129c-0.124-2.248,2.251-1.996,3.185-3.186
		c-2.508-5.453-4.572-11.352-7.962-15.924c-3.23-3.389-9.148-5.422-11.944-9.555c-2.757-4.078-2.222-9.865-3.98-14.334
		c-2.65-6.73-9.523-10.777-13.536-16.721c-0.66-0.977-0.948-2.855-1.593-3.98c-1.646-2.873-3.484-6.373-5.573-10.352
		c-7.717,2.104-11.852,7.789-18.313,11.148c-15.792,4.24-26.412-11.662-13.536-17.518c-0.912-4.072-5.995-5.107-2.389-9.555
		c2.823,0.627,2.736,4.164,5.573,4.777c5.372-0.732,7.478-4.732,12.74-5.574c9.015-9.299,19.969-16.658,25.479-29.461
		c2.416-0.293,1.653,2.594,2.389,3.98c6.455-0.465,10.061,2.199,15.129,1.594c8.885-1.062,14.321-12.326,23.091-7.963
		c0.555,4.424-4.675,4.23-7.166,5.574c-7.532,4.061-16.433,9.223-25.48,12.74c-5.85,0.361-13.679,2.473-17.517,5.572
		c-7.842,6.336-15.8,12.93-24.684,18.314c-2.999,1.816-7.229,2.639-8.759,6.369c4.5,3.922,12.434-0.24,12.739-5.574
		c4.637,4.42-2.594,7.777-4.777,10.352c7.213,1.102,15.382-3.723,19.11-8.758c7.632-0.422,13.523-4.656,19.906-7.963
		c3.53-1.83,9.251-0.906,14.332-1.592c4.328-0.586,7.676-3.955,11.943-1.594c-0.019,5.291-5.075,5.541-10.351,5.574
		c3.457,7.936,17.435-0.605,19.905,5.574c-4.801,8.072-17.982,1.793-23.091-1.594c-1.573-1.85-1.573-2.131,0-3.98
		c-9.466-0.707-13.177,4.34-19.109,7.166c1.921,9.492,7.761,15.064,13.536,20.703c3.008-5.666,1.651-12.492,3.98-17.518
		c5.164,2.123,3.503,11.32,3.186,18.312c-0.274,6.051-1.913,13.135,0,18.314c2.763,7.48,10.362,7.668,13.536,14.332
		c8.111,0.912,15.824,2.225,18.313,8.758c-4.288,3.123-8.383-2.463-14.332-2.389c-1.868,3.072,2.64,5.559,3.98,7.963
		c1.132,8.158,6.82,11.758,8.759,19.109c5.704-2.258,6.043-9.881,11.943-11.943c5.43-10.566,21.576-25.041,11.147-39.016
		c-2.458-0.129-4.5,1.881-6.37,0c0.394-9.416-1.718-16.33-3.185-23.887c-0.12-1.473-2.696-0.488-3.185-1.592
		c-0.361-9.99,1.578-22.281-3.186-27.869c1.307-12.002-3.816-18.809,0-25.48c-1.23-8.27-3.312-17.043-11.147-22.293
		c-6.062-15.438-15.135-27.863-22.294-42.202c-7.354-3.808-16.415-3.137-24.684-5.573c-4.713-1.389-8.445-4.426-13.536-4.777
		c-4.597-0.318-9.374,1.184-14.333,1.592c-4.217-1.985-13.472-5.285-17.517-2.389c0.908,6.158,11.122,8.221,15.925,5.574
		c-0.931,8.929-9.441,0.897-15.925,1.592c0.134,5.44,5.165,5.982,7.166,9.556c6.396,0.623,11.312,4.824,17.518,3.98
		c2.212-0.301,2.655-1.951,4.777-1.592c2.733,0.461,3.445,2.365,6.37,3.98c6.38,3.521,13.527,5.553,22.294,7.166
		c0.238,10.113,4.751,15.951,8.759,22.295c2.532-1.551-0.207-3.756,2.389-5.574c3.06,0.658,0.393,7.039,3.186,7.963
		c5.354,1.553,12.633-2.812,17.517,0.797c-4.08,5.242-12.608,4.529-19.109,3.98c-11.436-0.967-25.388-3.986-34.238-3.186
		c-7.519,5.754-11.554,14.988-18.313,21.498c-1.164,2.834,2.559,4.771,0.797,5.574c-3.828,6.523-8.498,12.205-12.74,18.314
		c-20.476-3.621-42.062,1.449-60.514-2.389c-9.23,2.162-24.047,0.855-34.238,0.795c-1.115-6.848-7.384-8.539-11.147-12.738
		c-4.782,3.738-0.812,9.736-2.389,14.332c-2.114,6.16-10.568,7.969-11.943,14.332c6.229,16.334,3.626,33.234-9.555,42.201
		c-1.679,9.998-4.334,19.021-6.37,28.664c10.305,3.23,18.761,8.311,28.665,11.943c-0.01,12.465-4.315,20.633-4.777,32.645
		c-3.514,0.072-3.729,3.145-6.37,3.186c-4.276,0.066-7.438-6.314-10.351-8.758c-5.387-0.018-9.48-4.486-14.332-6.371
		c-1.874-0.727-4.304-0.104-6.37-0.795c-1.775-0.596-3.031-2.605-4.777-3.186c-2.94-0.979-6.508-1.449-9.555-2.389
		c-3.076-0.947-6.042-2.508-8.758-3.186c-2.83-0.705-6.102-0.086-8.759-0.795c-6.259-1.674-10.552-6.289-16.721-7.166
		c-2.507-3.6-5.57-6.641-9.555-8.76c-5.851,2.111-3.375,12.549-6.37,17.518c-3.095,1.678-6.342,0.416-7.962-1.592
		c-0.166-8.129,4.488-11.438,5.574-18.314c5.822-1.609,5.72-9.143,12.74-9.555c1.363-2.883,1.986-6.506,1.592-11.146
		c3.426-2.68,6.821-5.389,11.147-7.166c3.653-14.215,1.004-29.834-1.593-44.59c-0.208-1.182-1.459-2.719-1.592-3.982
		c-0.271-2.574,1.15-4.846-1.592-7.166c0.691-11.406-3.17-15.492-0.796-23.887c-2.435-4.73-3.542-10.791-3.981-17.518
		c-0.802-1.586-1.989-2.787-3.185-3.98c3.377-13.078,8.239-24.672,12.74-36.627c-1.268-5.848,3.296-10.648,4.777-15.924
		c1.115-3.973,0.518-8.831,1.592-12.74c0.846-3.075,3.203-5.467,3.185-8.759c7.858-6.739,16.745-12.45,22.295-21.498
		c4.317-1.377,7.394-4.114,11.147-7.167c3.681-2.994,7.367-8.695,14.333-8.758c6.515-0.06,15.585,2.332,26.276,1.592
		c5.226-0.362,10.104-3.199,13.536,0.796c0.211,6.316-2.197,10.012-6.37,11.943c0.681-2.538-0.693-3.022-1.592-3.981
		c-6.515,0.517-7.849,1.933-14.333,1.592c-3.443-0.007-3.145-3.756-5.574-4.777c-18.911-4.064-24.618,8.707-35.034,17.517
		c-3.316,2.805-7.181,3.81-9.555,7.167c2.587,3.062,6.135,1.319,9.555,1.592c4.334,0.347,9.364,1.905,13.536,0.797
		c4.145-1.102,5.112-5.768,9.555-8.759c3.548-2.39,9.183-3.807,15.128-4.777c5.27-0.86,10.085-1.385,15.925-4.777
		c2.395-0.803,1.411,1.774,1.592,3.185c21.377-1.357,30.503,0.774,54.145-0.796c-1.761-5.14-8.869-4.933-7.167-13.536
		c-3.648,1.661-1.157,9.459-3.185,12.74c-5.065-7.382-3.278-24.83,6.37-25.479c2.032-0.137,3.583,1.666,6.37,3.981
		c-1.194-8.428-4.386-16.675-5.574-24.683c-0.311-2.092,0.25-4.368,0-6.37c-0.593-4.743-1.268-8.868-2.389-15.128
		c-0.287-1.602-1.604-3.926-1.593-5.574c0.014-1.834,0.53-6.637,1.593-9.555c0.943-2.588,3.895-4.562,4.777-7.167
		c1.028-3.035-0.747-7.766,0-11.147c0.422-1.911,2.039-4.124,3.981-7.167c1.456-2.28,2.619-4.781,3.981-7.166
		c1.245-2.179,3.27-4.032,4.777-6.37c3.126-4.847,5.001-9.749,8.759-13.536c2.649-2.671,6.549-3.995,7.962-7.167
		c3.323-0.588,6.164-0.736,9.555-2.389c4.969-2.421,6.927-5.614,13.536-8.758c3.957-1.883,7.04-1.968,11.943-3.981
		c2.031-0.833,3.009-2.684,4.777-3.185c5.115-1.448,12.85-2.299,18.313-2.389c9.165-0.15,21.557,4.414,33.442,5.574
		c6.897,0.673,15.324-0.651,20.702,1.593c1.475,0.615,2.823,2.814,4.777,3.981c6.39,3.814,13.413,7.95,18.313,14.333
		c2.971,0.48,3.905,2.995,7.166,3.185c3.009,8.404,4.091,18.734,9.555,24.684c0.041,3.427,0.11,5.153,1.593,7.962
		c0.36,0.684,0.272,2.123,0.796,3.185c1.373,2.781,4.301,5.26,4.777,7.962c0.498,2.821-1.046,6.305-1.592,11.147
		c-1.081,9.574,1.619,22.055,0,35.831c-0.198,1.678-2.163,3.506-2.389,5.574c-0.2,1.824,1.153,3.168,0.796,4.777
		C359.112,133.352,356.615,136.671,356.719,140.142z M143.327,192.693c-2.46-0.193-1.345-3.963-4.777-3.185
		c-2.045,8.04-2.521,17.65-3.185,27.073c-1.062,0-2.123,0-3.185,0c0.474,1.648-0.984,5.23,0.796,5.572
		c0.386-0.939,0.849-1.805,1.592-2.389c1.96,3.254,4.519,9.582,8.759,7.963c0.216-3.4-2.907-3.463-3.981-5.574
		c-3.704-7.434,0.367-15.145,0-23.886c2.421-2.867,10.148-1.759,11.147,1.592c-0.172,3.092,0.844,4.995,3.185,5.574
		c0.209-2.779-1.365-3.231-1.593-5.574c-0.356-3.667,3.171-7.188,3.185-11.146c0.009-2.534-1.678-4.271-1.592-7.167
		c-6.57-2.282-18.956-4.123-23.887,0.797c-0.329,3.779,2.717,4.184,2.389,7.962c-1.773,4.597-10.75,1.99-15.128,3.981
		c-0.466,8.626-1.905,18.184,0.796,26.276c4.549-6.152-2.795-19.277,3.185-23.887c6.451-0.187,11.074,0.248,14.333-1.593
		c-0.783-3.198-0.976-6.986-0.796-11.146c1.555-1.365,4.456-1.384,6.37-2.39c0.461,2.586-0.542,3.705-0.796,5.574
		c4.333-1.64,5.154-4.878,11.147-3.185c-0.36,3.896,1.848,5.553-0.796,7.166c0.437-2.438-2.015-8.31-6.37-5.574
		C143.961,188.018,144.66,191.373,143.327,192.693z M274.707,13.54c-3.735-1.726-7.911-3.467-11.943-0.796
		c-5.722-3.565-12.47,1.964-19.906,1.592c-5.005-4.681-7.917,1.075-11.944,3.981c-6.83,4.929-12.204,6.045-22.294,5.574
		c-3.409,4.208-8.506,6.995-11.944,11.147c-2.241,2.708-3.945,6.325-5.573,9.555c3.896,0.181,5.004-2.427,8.758-2.389
		c5.345,1.821,5.508,8.825,9.555,11.944c2.444,0.55,5.173-0.76,7.166,0c1.842,0.702,1.387,2.587,2.389,3.981
		c1.596,2.22,6.722,4.22,4.777,7.962c-6.479,1.217-14.704,0.69-19.905,3.185c-2.271,3.088,0.481,7.204-3.981,8.759
		c-6.141-1.904-17.594-3.974-11.943-12.74c1.907-0.481,3.633-1.145,6.37-0.796c-1.973-6.042,1.976-10.671,7.962-11.147
		c-0.658-2.25,1.122-2.063,0.796-3.981c-0.254-1.87-2.464-1.782-3.185-3.185c-5.873,0.497-7.732,5.007-13.536,5.574
		c-1.805,3.237-2.523,7.562-5.573,9.555c0.063,13.371-5.78,19.929-3.981,35.035c1.702,0.952,0.989,4.319,4.777,3.185
		c-0.787-5.193-2.083-6.776,0.796-10.351c-0.251-1.872-3.774-0.472-3.185-3.185c0.728-1.396,1.48-2.767,3.981-2.389
		c0.7-2.558-2.625-1.091-2.389-3.185c1.597-2.385,6.537-1.426,10.351-1.593c1.991,2.097,0.348,4.277,2.389,7.167
		c-5.582,7.082-2.495,19.589-6.37,27.072c1.96,1.755,6.104,1.328,6.37,4.777c-0.252,2.933-5.983,0.387-7.167,2.389
		c2.07,1.646,7.755-0.324,7.962,3.185c-0.487,6.148-6.417,6.854-8.758,11.147c3.145,6.805,1.434,13.54,1.592,23.091
		c-1.516,0.342-2,1.715-3.981,1.592c-5.726-4.277-5.481-20.588-15.925-15.128c0.149,3.035,4.443,1.927,4.777,4.777
		c1.414,5.222,5.086,8.185,4.777,15.129c13.992,1.324,29.309,1.158,42.201,0c0.122-4.125-0.812-9.306,2.389-10.351
		c3.375-0.606,9.429,1.467,10.351-1.593c-4.938-1.268-11.979-2.483-18.313-1.592c-4.19,0.589-8.515,4.52-10.351,1.592
		c1.46-3.847,4.784-5.833,7.962-7.962c4.197,1.414,6.893-2.032,10.351-2.389c6.643-0.684,12.982,2.687,20.703,0.796
		c5.471,3.288,13.361,4.156,14.332,11.943c-3.256,2.662-6.137-1.784-8.759,0c-1.421,2.918-1.856,6.08-0.796,9.555
		c6.402,1.398,15.173-2.003,21.498,1.592c0.544,5.016,0.094,11.631,1.593,17.517c11.334,8.837,36.62,3.723,31.85,28.666
		c7.487,1.535,13.452,4.594,15.128,11.943c-0.691,1.164-1.191,2.523-3.185,2.389c-5.046-2.387-6.449-8.414-11.943-10.352
		c-0.514,8.475,1.94,13.984,6.369,17.518c2.656-2.084,7.045,0.887,7.963,3.184c-0.621,0.176-0.926,0.668-0.797,1.594
		c-0.157,2.496-5.209,0.1-4.777,3.186c1.714,7.479,10.341,12.34,11.944,19.109c0.975,4.117-1.356,8.924,0.796,14.332
		c3.47-2.006,5.153-7.531,7.166-11.943c3.118-6.84,5.423-11.268,6.37-19.109c0.572-4.736,3.467-10.602,0.796-14.334
		c-1.247,1.143-0.627,4.152-3.185,3.982c-0.866-6.062,3.497-14.777,3.981-19.109c0.351-3.151,1.053-5.44,1.592-7.167
		c0.377-1.209-0.379-2.773,0-3.981c1.169-3.717,2.754-6.961,3.981-11.147c1.59-5.418,4.52-12.692,4.777-19.11
		c1.199-2.551,2.869-0.913,5.574-0.796c1.385-8.435,4.74-14.9,7.962-21.499c2.505-0.398,3.112,1.735,4.777,0
		c-0.462-4.316-1.654-7.901-5.573-8.759c-4.584,3.113-6.018,9.376-8.759,14.333c-0.238,4.274,1.144,10.167-3.186,10.351
		c0.58-2.173-1.582-1.603-1.592-3.185c0.798-10.512-0.738-28.66-0.797-38.219c-3.055-4.377-5.4-9.462-5.573-16.721
		c0.323-1.534,3.087-0.629,2.389-3.185c0.644-14.679-6.666-20.735-11.147-32.646c-0.25-1.873-3.774-0.473-3.185-3.185
		c3.687-2.418,7.985-4.223,14.332-3.981c0.516,3.466,3.589,4.374,3.981,7.962c-1.189,1.199-4.54,0.238-3.981,3.185
		c1.698,1.487,5.289,1.081,6.37,3.185c0.458,3.94-0.635,7.392,0,10.351c0.29,1.353,1.829,1.292,2.389,2.389
		c0.772,1.516-1.311,4.968,1.593,3.981c3.553-2.515,1.141-13.72,1.592-16.721c1.367-1.288,1.979-3.331,1.593-6.37
		c-12.374-2.755-11.768-18.489-18.313-27.072c0-1.858,0-3.716,0-5.574c-3.725-4.042-12.31-3.653-15.925,0
		c-0.94-0.917-2.814-0.901-4.777-0.796c-9.41,6.062-19.67,11.895-26.276,20.702c-0.767,1.022-0.646,2.268-1.592,3.185
		c-1.768,1.715-4.448,4.323-7.166,3.981c-1.937-1.565,0.048-2.431,0.796-3.981c3.473-7.197,10.068-11.081,15.129-15.925
		c-2.82-4.808-4.809-11.914-10.352-13.536c-2.881-0.843-5.869,1.572-9.555,0c-11.894,6.42-21.528,15.1-28.665,26.276
		c0.321,1.537,3.646,0.069,2.389,3.185c-7.023-1.981-4.279,5.807-10.351,4.777c-0.9-2.802,1.933-4.554,3.185-6.37
		c1.395-2.024,2.634-4.749,3.981-6.37c1.21-1.456,4.137-2.319,5.573-3.981c1.288-1.49,1.216-3.62,2.389-4.778
		c2.875-2.836,7.969-3.997,8.759-8.758c-4.542-3.506-6.94,1.944-11.943,2.389c-2.425-4.216-5.21-2.823-8.759-3.185
		c2.668-6.622,9.136-9.443,13.536-14.332c10.495,1.15,18.952-2.044,29.461,0c2.975,0.851,2.27-1.978,4.777-1.593
		c2.777,2.266,8.075,2.01,10.352,4.777c2.55-0.368,2.808-3.032,5.573-3.185c0.75,3.236-4.622,2.45-2.389,4.777
		c5.083-0.49,11.402,2.954,12.74-2.389c-3.407-1.636-5.747-4.339-8.759-6.37c-3.096,2.995-8.314,0.349-11.943,1.592
		c-4.87-8.481-16.204-1.965-23.888-2.389C274.585,17.376,274.601,15.502,274.707,13.54z M180.75,105.903
		c1.005-0.934,0.638-3.309-1.593-3.185C178.936,104.533,179.35,105.711,180.75,105.903z M106.7,153.678
		c2.694,0.779,7.527-0.979,10.351-0.796C115.774,149.35,108.669,152.702,106.7,153.678z M222.951,165.621
		c-1.85,0.539-2.131,2.646-3.981,3.185c-32.92,0.521-67.934-1.05-99.53,0.796c0.069,4.05,0.349,8.312-1.592,10.352
		c-5.229,1.531-10.253-0.47-15.129,0c-3.355,0.323-8.554,1.124-9.555,3.185c7.114,0.455,22.379,2.339,30.257-0.796
		c1.362-1.943-1.97-4.515-0.796-8.759c1.624-0.234,1.561-2.154,3.185-2.389c25.541,0.055,62.247,0.987,88.382,0
		c2.163,1.021,2.292,4.078,4.777,4.777c2.07-1.56-3.197-4.702,1.592-4.777c3.399,0.582,2.198,5.765,2.389,9.555
		c8.756,0.531,19.272-0.129,23.888-1.593c1.331-0.422,4.039,0.816,3.185-1.592c-1.885-0.49-5.289-0.062-4.777-4.778
		c0.62-0.176,0.925-0.667,0.796-1.592c6.887-0.468,15.844,3.02,19.906-1.593c-6.269-1.919-16.14,0.017-20.702-1.592
		c-1.635-3.143,0.071-9.626-2.389-11.943C233.153,155.621,215.797,154.321,222.951,165.621z M359.904,167.213
		c0.977,2.475,3.702,3.199,3.185,7.166c-0.916,3.288-4.362,2.816-6.369,3.186c-0.604,2.846-2.65,4.251-5.574,4.777
		c-0.059,3.392-1.332,5.568-0.796,9.555c2.796,0.467,2.619-3.764,4.777-1.593c-0.326,2.859-0.201,6.169-2.389,7.166
		c-1.98-0.087-2.465-1.492-3.981,0c0.882,8.054-3.52,14.154-1.593,20.703c9.689-1.723,9.26-13.566,13.536-20.703
		c-2.012-1.505,0.734-2.791-0.796-4.777c5.184-6.229,8.271-14.555,7.166-27.072c-1.15-1.237-1.675-3.103-2.389-4.777
		c1.645-0.479,3.016-1.231,2.389-3.981C361.412,157.043,360.234,161.705,359.904,167.213z M103.515,172.787
		c2.105,1.524,7.311,0.827,9.555,0C113.013,168.388,104.186,170.469,103.515,172.787z M93.164,173.583
		c2.407-0.247,6.193,0.884,6.37-1.592C97.536,172.647,92.678,170.443,93.164,173.583z M113.866,175.176
		c-0.533,3.45,4.005,2.453,3.185-0.797C115.665,174.32,114.575,174.557,113.866,175.176z M85.202,180.75
		c2.556,1.139,5.18-0.746,5.574-3.981C88.208,175.619,85.062,176.981,85.202,180.75z M125.014,182.342c1.062,0,2.123,0,3.185,0
		c-0.872-2.031,2.72-4.097-0.796-3.981C128,181.082,124.167,179.373,125.014,182.342z M163.233,178.361
		c-0.821,2.629-8.373-1.473-7.962,2.389c9.481-1.969,24.549,1.302,34.238-0.796C182.368,177.805,170.434,180.449,163.233,178.361z
		 M194.286,180.75c7.491,0.001,13.259,2.073,19.11,1.593c0,3.185,0,6.37,0,9.555c4.302-0.165,2.299-10.138,1.592-12.74
		C207.218,179.574,198.119,178.411,194.286,180.75z M98.738,187.916c-7.957-2.276-20.493-1.192-27.868-2.389
		c-6.644-1.077-19.808-3.215-24.684,0c-1.287,12.308-4.756,19.601-6.37,32.646c-2.531,4.369-4.665,9.137-4.777,15.924
		c-6.146,7.77-12.183,23.369-4.777,33.443c1.222-6.822-1.361-13.77,3.185-15.129c2.366-0.707,0.151,4.602,0,3.186
		c0.534,5.01,3.17,12.576,0,16.721c1.383,3.395,1.815,7.74,1.592,12.74c-1.387-0.061-2.476,0.176-3.185,0.795
		c-0.136,6.086,2.175,11.018,3.185,14.332c3.159,10.371,2.281,21.639,4.777,31.055c3.507,13.225-4.258,26.236-4.777,40.607
		c5.28,2.586,10.567,7.576,17.518,9.555c2.705,0.77,5.831,0.047,8.758,0.797c6.419,1.646,13.139,7.443,19.906,4.777
		c1.898-9.691,1.042-16.07,3.185-23.092c-4.923-0.021-7.78,8.584-13.536,10.352c-1.504-8.186,9.622-11.584,14.332-17.518
		c2.046-2.578,2.633-6.369,4.777-8.758c0.479-0.533,1.892-0.229,2.389-0.797c1.585-1.812,2.202-3.611,4.778-3.98
		c2.113-10.492,3.702-24.916-0.796-33.443c-6.878-3.736-8.237-12.996-15.128-16.721c-3.176-0.787-2.398,2.381-5.574,1.594
		c-1.795-1.723,0.659-2.717,0-5.574c-4.985-0.389-15.398,3.508-15.925-1.592c-0.055-0.533,3.781-2.92,4.777-3.186
		c4.659-1.244,14.114,2.328,14.333-3.98c-2.278-0.586-4.504-3.857-2.389-6.371c4.413,1.264,5.078,5.129,9.555,5.574
		c5.338,0.531,10.153-6.15,14.332-2.389c0.125,3.045-3.251,2.588-4.777,3.98c0.667,3.852-0.739,5.631-1.592,7.963
		c1.108,2.342,4.192,2.709,3.981,6.369c-1.584,1.07-3.791,1.518-5.574,2.389c1.419,2.828,2.292,6.201,5.574,7.166
		c5.019-3.539,11.175-6.051,12.74-11.943c2.091-7.871-3.693-17.453-1.592-27.867c-1.001-0.326-1.627-1.027-1.592-2.389
		c-8.967-5.127-28.686-4.035-38.22-6.371c-5.333-1.307-14.672,0.008-15.128-6.369c4.022-0.371,9.533,0.551,11.147-3.98
		c2.77,1.59,0.535,4.043,3.185,4.777c3.354-2.486,4.509-7.17,7.166-10.352c-0.877-3.021,0.901-10.23,5.574-10.352
		c2.254,4.738-5.974,6.27-1.593,7.963c2.833-2.209,3.785-6.301,7.167-7.963c2.169,0.75,1.822,4.018,2.389,6.369
		c5.512,1.363,13.088-2.586,15.128,3.186c-0.036,3.414-4.956,1.945-7.166,3.186c0.401,4.117-2.255,5.178-1.593,9.555
		c2.934,2.906,7.532,4.146,11.944,5.574c2.559-2.219,3.546-6.01,6.37-7.963c0.52,4.523-1.047,11.133,0.796,14.332
		c0.462-5.773,4.361-12.064,0-15.924c-0.658-5.811,5.772-10.328,5.574-14.334c-0.33-6.629-10.768-10.504-15.925-13.535
		c-4.981-2.928-10.008-5.334-15.128-7.963c-7.208-3.701-9.876-6.823-17.518-5.573c-6.355,4.079-9.021,10.618-12.74,16.721
		c-4.083,6.701-10.027,12.502-12.74,19.906c-4.394,1.709-4.794,7.414-10.351,7.961c-0.19-1.135-1.312-1.342-1.592-2.389
		c2.284-7.27,9.502-9.607,11.147-17.518c6.45-5.227,10.686-12.67,14.333-20.702c1.67-1.515,4.2-2.169,3.981-5.573
		c-1.63-0.83-4.24-5.25-0.796-6.37c3.613-0.429,2.125,4.244,5.574,3.981c5.862-2.951,12.898-1.058,17.517,1.593
		c3.098-0.659,4.915-5.417,7.962-1.593c-0.356,2.298-3.426,1.883-3.981,3.981c4.103,2.797,8.302,5.499,13.536,7.167
		c1.021,2.268,4.235,5.336,6.37,3.98c0.991-6.152-3.354-13.547-5.574-19.11c-0.393-2.517,3.951-0.295,3.185-3.185
		c-0.805-2.242-3.382,0.22-4.778,0C102.701,191.916,100.266,190.369,98.738,187.916z M199.86,184.731
		c-13.19,1.393-27.529-0.795-42.201,0.796c-1.398,6.034-4.022,15.624,0.796,19.11c5.777,1.216,9.67-1.56,14.333-1.593
		c16.169-0.114,29.384,12.96,29.46,29.46c0.032,6.766-3.575,12.973-3.185,20.703c-5.085,1.656-8.959,6.998-15.129,8.758
		c-7.944,2.266-16.617-0.627-26.276-0.797c0.634-4.973-4.757-3.178-6.37-3.98c1.476-5.352-5.044-9.17-6.37-14.332
		c0.011-5.584-0.041-11.107-5.574-11.148c-1.168,4.381,0.538,12.561,2.389,16.723c0.259,0.582,2.011,1.012,2.389,1.592
		c0.767,1.18,0.664,3.809,0.796,3.98c1.316,1.717,5.752,2.809,5.574,4.777c-0.165,1.812-3.555,1.268-5.574,3.186
		c-1.659,1.578-4.767,6.355-4.777,11.146c4.031-1.074,5.672-2.902,5.574-6.369c2.564-1.416,4.731-3.23,8.759-3.186
		c3.185,3.451,11.493,1.777,13.536,6.371c4.871-4.287,17.186,0.281,21.499-0.797c1.799-1.648-1.11-4.109,2.389-4.777
		c7.873,0.439,11.642-3.221,12.74-9.555c-2.288-1.111-4.045,2.17-4.777,0c0.973-4.258,5.163-6.441,6.37-10.352
		c1.631-5.279-1.274-10.838,1.592-15.129c-3.727-9.809-10.729-16.342-16.721-23.886c1.326-1.582-0.072-1.013,0-3.186
		c-9.594-4.325-22.677-2.199-31.85-1.592c12.469-7.536,33.046-0.133,43.793-3.981c0.64-2.337-1.565-5.398,0-9.555
		C201.984,186.322,200.642,185.807,199.86,184.731z M293.816,196.674c-10.206-1.092-20.996-11.837-31.85-11.147
		c-4.009,0.255-5.757,2.658-8.759,3.981c-2.619,1.155-6.881,0.501-7.962,3.981c15.688-0.825,24.812,4.914,38.22,6.369
		c2.88,2.163,4.487,5.599,7.962,7.167c1.586,2.395,1.912,6.049,5.574,6.37C296.477,205.556,296.007,201.976,293.816,196.674z
		 M123.421,200.656c-2.147,2.241,1.412,3.267,0.796,6.37c-1.625,3.709-1.651,8.758,0.796,11.944
		c-3.135,3.766-2.665,11.137-3.981,16.721c4.512,5.043,6.541,12.568,7.167,21.498c2.985-6.9-0.133-12.283,2.389-17.518
		c-1.856-1.328-2.826-3.543-3.981-5.574c1.862-10.373,1.404-18.549,2.389-32.645C127.411,200.708,125.204,198.86,123.421,200.656z
		 M203.045,207.822c0.354,3.894-1.153,9.646,2.389,10.351c4.248,1.484,4.086-5.482,4.777-8.758
		c3.358,4.725,2.242,12.479,3.185,19.11c0.445,3.125,2.441,5.766,1.592,8.758c-2.433-0.574-2.902,0.814-4.777,0.797
		c0.726,13.188,3.771,27.021,3.185,39.016c5.649,0.158,1.97-7.104,1.592-12.74c-0.578-8.656-1.147-17.584-0.796-26.275
		c1.327,0,2.654,0,3.981,0c1.601-9.283-2.309-18.438-2.389-31.85c-2.939-1.608-5.617-0.335-7.962,0.797
		c-1.13-2.321-3.354-3.547-7.166-3.186C200.28,206.34,202.799,205.944,203.045,207.822z M148.104,212.599
		c0.25-1.076,1.133-1.52,0.796-3.184c-0.796,0-1.593,0-2.389,0C146.29,211.229,146.704,212.407,148.104,212.599z M156.067,217.376
		c-3.793,3.971-6.807,13.367-5.574,19.906c0.162,0.855,3.694,9.164,3.981,9.555c0.28,0.383,2.01,0.418,2.389,0.797
		c0.437,0.438,0.339,2.027,0.796,2.389c2.58,2.037,8.904,4.34,11.147,4.777c12.011,2.344,22.512-3.721,25.479-13.535
		c4.981-16.479-5.343-33.181-23.887-30.258C163.005,212.173,159.119,214.183,156.067,217.376z M222.951,266.743
		c-0.009,3.85-0.62,8.756,2.389,11.148c2.601-21.098-0.505-46.611,0-62.904c-1.018-0.043-1.103-1.02-2.389-0.795
		C223.162,235.063,222.979,253.528,222.951,266.743z M117.848,225.339c0.045-0.486,0.119-0.943,0.796-0.797
		c-0.09-0.971-0.238-1.885-1.592-1.592C117.176,223.888,116.915,225.21,117.848,225.339z M234.098,230.913
		c0.615-3.535-2.634-3.205-3.98-4.777C230.028,229.144,231.675,230.417,234.098,230.913z M237.284,227.728
		c-0.059,2.711,2.342,2.965,3.98,3.98c0.113-2.541,2.943-2.363,3.186-4.777C240.621,227.462,241.573,228.634,237.284,227.728z
		 M236.487,242.06c-2.557-0.361-2.74-3.098-3.98-4.777c-2.895,0.025-3.498,2.342-3.186,5.574c3.836-0.387,5.491,1.41,6.37,3.98
		c-2.436,0.578-2.343-1.373-4.778-0.795c2.747,3.396-0.469,5.82-0.795,10.35c2.531-1.217,3.502-0.279,6.369,0
		c0.598-2.721-3.234-1.012-2.389-3.98c3.805-2.215,1.871-11.977,8.759-8.758c-1.793-4.312-6.54-5.672-9.556-8.76
		C232.872,238.278,239.202,239.034,236.487,242.06z M270.725,249.226c2.479,0.008,5.188,1.883,7.166,0
		c-1.81-5.09-2.844-10.957-7.166-13.535C268.653,239.423,270.727,245.001,270.725,249.226z M249.227,238.079
		c-0.594,2.451,2.186,1.529,1.592,3.98c4.576,0.979,5.947-4.037,2.389-4.777C252.014,239.134,251.26,238.497,249.227,238.079z
		 M74.851,252.411c5.415,0.637,10.394,1.928,16.721,0.797c0.4-3.77,1.642-8.48,0-11.943C82.387,236.7,76.996,245.14,74.851,252.411z
		 M218.97,257.188c1.229-3.363,1.97-12.387-2.389-12.74C214.429,248.735,217.68,253.765,218.97,257.188z M246.042,247.634
		c0.043-1.371-0.612-2.041-1.592-2.389C244.407,246.614,245.062,247.286,246.042,247.634z M128.995,264.354
		c-2.111,0.254,0.745-4.461-2.389-3.186c0.133,4.646-1.39,7.635-0.796,12.74c7.839-0.465,7.599-12.998,7.166-19.109
		c-0.796,0-1.593,0-2.389,0C130.781,259.733,131.434,261.315,128.995,264.354z M136.161,275.501
		c4.825-0.373,0.231-5.467,1.592-9.555c0.707-1.416,2.223-2.023,1.592-4.777c-0.175-0.619-0.667-0.924-1.592-0.795
		C135.228,264.667,135.689,269.833,136.161,275.501z M112.274,273.909c1.912,0.742,2.108,3.199,5.574,2.389
		c-1.781-2.996-1.82-7.734-3.981-10.352C112.782,268.048,112.925,271.376,112.274,273.909z M206.23,269.132
		c1.411-0.182,3.987,0.803,3.185-1.592c-1.062,0-2.124,0-3.185,0C206.23,268.071,206.23,268.601,206.23,269.132z M143.327,276.298
		c28.686,1.76,48.444,1.375,68.477,0.797c-3.146-5.549-9.838-2.621-15.129-2.389c-16.894,0.742-42.042-0.002-55.736-0.797
		C140.794,275.647,141.59,276.442,143.327,276.298z M128.199,284.261c0.668-0.924,1.05-2.135,0.796-3.98
		c-1.507-1.414-5.259-0.58-7.962-0.797C122.829,281.669,124.09,284.388,128.199,284.261z M135.365,280.28
		c-1.495,1.518,0.472,1.439,0,3.98c4.32,0.869,5.294-1.607,8.759-1.592c10.958,3.41,22.837-1.873,38.219,1.592
		c6.485-4.105,24.973,4.184,29.461-3.98C184.124,279.62,163.522,279.188,135.365,280.28z M216.581,280.28
		c-0.593,2.449,2.186,1.529,1.592,3.98c3.421-1.623,9.536-0.551,10.351-4.777C224.645,279.849,219.198,278.649,216.581,280.28z
		 M82.017,284.261c-0.13,5.439,4.916,5.701,5.574,10.352c5.54-0.973,2.08-8.062,0.796-11.148
		C85.437,284.374,83.771,283.542,82.017,284.261z M211.007,288.241c0.531,0,1.062,0,1.592,0c0-0.531,0-1.061,0-1.592
		c-0.531,0-1.061,0-1.592,0C211.007,287.181,211.007,287.71,211.007,288.241z M22.299,389.364
		c21.75,10.896,50.498,14.793,71.662,26.275c0.462-2.457,2.878-2.961,4.777-3.98c2.604,0.09,0.39,9.111,3.185,6.369
		c-1.196-2.814,3.482-6.584,3.981-10.352c-4.217-8.787-15.045-10.965-23.887-15.127c-5.482,1.424-10.453-2.396-12.74-3.186
		c-3.26-1.127-7.735-0.414-11.147-1.594c-1.242-0.428-2.174-2.098-3.185-2.389c-2.539-0.729-5.562-0.068-7.962-0.795
		c-3.382-1.025-8.794-3.857-11.147-5.574c-3.673-2.68-5.215-6.953-7.962-10.352c-0.796,0-1.592,0-2.389,0
		C26.115,377.255,24.549,383.651,22.299,389.364z M97.146,394.142c2.922,4.244,7.406,6.926,11.943,9.555
		c2.65-6.033-4.896-7.645-8.759-9.555c-4.42-2.186-9.545-5.338-14.332-5.574C87.086,393.054,92.628,393.085,97.146,394.142z"/>
	<path fill-rule="evenodd" clip-rule="evenodd" fill="#FFFFFF" d="M233.301,234.894c3.016,3.088,7.763,4.447,9.556,8.76
		c-6.888-3.219-4.954,6.543-8.759,8.758c-0.846,2.969,2.986,1.26,2.389,3.98c-2.867-0.279-3.838-1.217-6.369,0
		c0.326-4.529,3.542-6.953,0.795-10.35c2.436-0.578,2.343,1.373,4.778,0.795c-0.879-2.57-2.534-4.367-6.37-3.98
		c-0.312-3.232,0.291-5.549,3.186-5.574c1.24,1.68,1.424,4.416,3.98,4.777C239.202,239.034,232.872,238.278,233.301,234.894z"/>
	<path fill-rule="evenodd" clip-rule="evenodd" fill="#FFFFFF" d="M102.719,195.878c1.396,0.22,3.973-2.242,4.778,0
		c0.766,2.89-3.578,0.668-3.185,3.185c2.22,5.562,6.565,12.958,5.574,19.11c-2.135,1.355-5.349-1.713-6.37-3.98
		c-5.234-1.668-9.433-4.37-13.536-7.167c0.555-2.099,3.625-1.684,3.981-3.981c-3.047-3.824-4.865,0.934-7.962,1.593
		c-4.619-2.65-11.655-4.544-17.517-1.593c-3.448,0.263-1.96-4.41-5.574-3.981c-3.444,1.12-0.834,5.54,0.796,6.37
		c0.219,3.404-2.311,4.059-3.981,5.573c-3.646,8.032-7.882,15.475-14.333,20.702c-1.645,7.91-8.863,10.248-11.147,17.518
		c0.281,1.047,1.402,1.254,1.592,2.389c5.557-0.547,5.957-6.252,10.351-7.961c2.713-7.404,8.656-13.205,12.74-19.906
		c3.719-6.104,6.385-12.642,12.74-16.721c7.642-1.25,10.309,1.872,17.518,5.573c5.121,2.629,10.147,5.035,15.128,7.963
		c5.157,3.031,15.595,6.906,15.925,13.535c0.199,4.006-6.232,8.523-5.574,14.334c4.361,3.859,0.462,10.15,0,15.924
		c-1.843-3.199-0.276-9.809-0.796-14.332c-2.824,1.953-3.811,5.744-6.37,7.963c-4.412-1.428-9.01-2.668-11.944-5.574
		c-0.663-4.377,1.994-5.438,1.593-9.555c2.21-1.24,7.13,0.229,7.166-3.186c-2.041-5.771-9.617-1.822-15.128-3.186
		c-0.567-2.352-0.219-5.619-2.389-6.369c-3.381,1.662-4.333,5.754-7.167,7.963c-4.381-1.693,3.847-3.225,1.593-7.963
		c-4.673,0.121-6.451,7.33-5.574,10.352c-2.657,3.182-3.812,7.865-7.166,10.352c-2.65-0.734-0.415-3.188-3.185-4.777
		c-1.615,4.531-7.125,3.609-11.147,3.98c0.456,6.377,9.795,5.062,15.128,6.369c9.534,2.336,29.253,1.244,38.22,6.371
		c-0.035,1.361,0.591,2.062,1.592,2.389c-2.101,10.414,3.684,19.996,1.592,27.867c-1.565,5.893-7.721,8.404-12.74,11.943
		c-3.282-0.965-4.154-4.338-5.574-7.166c1.783-0.871,3.99-1.318,5.574-2.389c0.211-3.66-2.873-4.027-3.981-6.369
		c0.854-2.332,2.26-4.111,1.592-7.963c1.526-1.393,4.903-0.936,4.777-3.98c-4.179-3.762-8.994,2.92-14.332,2.389
		c-4.478-0.445-5.142-4.311-9.555-5.574c-2.115,2.514,0.111,5.785,2.389,6.371c-0.219,6.309-9.674,2.736-14.333,3.98
		c-0.996,0.266-4.832,2.652-4.777,3.186c0.527,5.1,10.939,1.203,15.925,1.592c0.659,2.857-1.795,3.852,0,5.574
		c3.176,0.787,2.397-2.381,5.574-1.594c6.892,3.725,8.25,12.984,15.128,16.721c4.498,8.527,2.909,22.951,0.796,33.443
		c-2.576,0.369-3.192,2.168-4.778,3.98c-0.497,0.568-1.91,0.264-2.389,0.797c-2.145,2.389-2.731,6.18-4.777,8.758
		c-4.71,5.934-15.836,9.332-14.332,17.518c5.755-1.768,8.612-10.373,13.536-10.352c-2.143,7.021-1.286,13.4-3.185,23.092
		c-6.767,2.666-13.487-3.131-19.906-4.777c-2.927-0.75-6.053-0.027-8.758-0.797c-6.95-1.979-12.238-6.969-17.518-9.555
		c0.519-14.371,8.285-27.383,4.777-40.607c-2.497-9.416-1.619-20.684-4.777-31.055c-1.01-3.314-3.321-8.246-3.185-14.332
		c0.708-0.619,1.798-0.855,3.185-0.795c0.223-5-0.209-9.346-1.592-12.74c3.17-4.145,0.534-11.711,0-16.721
		c0.151,1.416,2.366-3.893,0-3.186c-4.546,1.359-1.963,8.307-3.185,15.129c-7.405-10.074-1.369-25.674,4.777-33.443
		c0.112-6.787,2.246-11.555,4.777-15.924c1.614-13.045,5.083-20.338,6.37-32.646c4.876-3.215,18.04-1.077,24.684,0
		c7.375,1.196,19.911,0.112,27.868,2.389C100.266,190.369,102.701,191.916,102.719,195.878z M40.612,269.929
		c3.973,2.131-1.464,13.674,4.777,13.535c3.543-4.619-0.204-12.791,0.796-21.498c-1.136-0.191-1.343-1.311-2.389-1.592
		C40.656,262.979,43.085,266.433,40.612,269.929z M54.945,351.94c5.736,4.084,27.833,6.379,29.46-4.777
		C77.049,348.099,59.416,345.483,54.945,351.94z"/>
</g>
</svg>
